<svg width="16" height="17" viewBox="0 0 16 17" fill="none" xmlns="http://www.w3.org/2000/svg">
<path d="M8 1.25342C4.13906 1.25342 1 4.39248 1 8.25342C1 12.1144 4.13906 15.2534 8 15.2534C11.8609 15.2534 15 12.1144 15 8.25342C15 4.39248 11.8609 1.25342 8 1.25342Z" fill="#333333"/>
<path fill-rule="evenodd" clip-rule="evenodd" d="M10.405 9.2724C10.3844 9.24293 10.3637 9.21405 10.3431 9.18534C10.1757 8.95195 10.0161 8.72949 10.0161 8.28357V6.62121C10.0161 6.56342 10.0164 6.50602 10.0167 6.44907C10.0204 5.8117 10.0237 5.2301 9.56403 4.78517C9.16985 4.3921 8.51506 4.25342 8.01429 4.25342C7.03488 4.25342 5.9423 4.63222 5.71318 5.88747C5.68893 6.0208 5.78232 6.09059 5.86698 6.11021L6.86426 6.22213C6.95765 6.21721 7.02509 6.12202 7.04317 6.02615C7.12868 5.59361 7.47799 5.38581 7.87048 5.38581C8.08215 5.38581 8.32253 5.46608 8.44782 5.66295C8.57701 5.85925 8.57496 6.12137 8.57312 6.35575C8.57291 6.38306 8.5727 6.40998 8.5727 6.43639V6.57573C8.48016 6.58645 8.38321 6.59662 8.28334 6.60709C7.73945 6.66411 7.10927 6.73018 6.63729 6.94473C5.99294 7.23412 5.54046 7.82296 5.54046 8.68847C5.54046 9.79767 6.21375 10.3522 7.08063 10.3522C7.81221 10.3522 8.21257 10.1731 8.77694 9.57651C8.80513 9.61887 8.83046 9.65793 8.85433 9.69473C8.98896 9.9023 9.07683 10.0378 9.36685 10.288C9.44342 10.3303 9.54471 10.3287 9.61255 10.265C9.81805 10.0755 10.1912 9.73926 10.4016 9.55645C10.4856 9.48488 10.4707 9.36916 10.405 9.2724ZM8.38019 8.79304C8.21684 9.09403 7.95665 9.27819 7.66755 9.27819C7.27336 9.27819 7.0419 8.96604 7.0419 8.5043C7.0419 7.59531 7.82858 7.43032 8.5725 7.43032C8.5725 7.48471 8.57298 7.53939 8.57347 7.59422C8.57712 8.00571 8.58084 8.42536 8.38019 8.79304Z" fill="white"/>
<path d="M11.6349 11.0864C10.6498 11.8481 9.22124 12.2534 7.99091 12.2534C6.26725 12.2534 4.71463 11.5857 3.53979 10.474C3.44764 10.3866 3.52989 10.2672 3.6406 10.3351C4.90833 11.1083 6.47578 11.5737 8.09467 11.5737C9.18689 11.5737 10.3873 11.3363 11.4918 10.845C11.6584 10.7712 11.7981 10.9604 11.6349 11.0864Z" fill="white"/>
<path d="M10.8945 10.5558C11.2117 10.5156 11.919 10.4268 12.0449 10.5957C12.1709 10.7644 11.9062 11.4584 11.7868 11.7711L11.7859 11.7734C11.75 11.8677 11.8273 11.9054 11.9086 11.8339C12.4372 11.3707 12.5738 10.3998 12.4655 10.2591C12.358 10.1204 11.4339 10.0002 10.8699 10.4154C10.7832 10.4798 10.798 10.5675 10.8945 10.5558Z" fill="white"/>
</svg>
