<svg width="16" height="17" viewBox="0 0 16 17" fill="none" xmlns="http://www.w3.org/2000/svg">
<path d="M1 3.25342C1 2.14885 1.89543 1.25342 3 1.25342H13C14.1046 1.25342 15 2.14885 15 3.25342V13.2534C15 14.358 14.1046 15.2534 13 15.2534H3C1.89543 15.2534 1 14.358 1 13.2534V3.25342Z" fill="#FFCC00"/>
<path d="M3.46192 7.25342L3.01465 7.86115H5.45234C5.57561 7.86115 5.57408 7.90757 5.51382 7.98965C5.45265 8.07264 5.35029 8.2162 5.28788 8.30074C5.25622 8.34346 5.19905 8.42124 5.3884 8.42124H6.38531L6.68072 8.01977C6.86393 7.77108 6.69671 7.25373 6.04163 7.25373L3.46192 7.25342Z" fill="#D80613"/>
<path d="M2.83365 9.23339L3.73219 8.01239H4.84713C4.9704 8.01239 4.96886 8.05912 4.90861 8.14089L4.68114 8.45075C4.64947 8.49348 4.5923 8.57125 4.78166 8.57125H6.27501C6.15113 8.74155 5.74782 9.23339 5.02481 9.23339H2.83365ZM7.97894 8.57094L7.49171 9.23339H6.20646L6.6937 8.57094H7.97894ZM9.94754 8.42093H6.80436L7.66386 7.25342H8.94849L8.45603 7.92294H9.02933L9.52241 7.25342H10.807L9.94754 8.42093ZM9.83719 8.57094L9.34996 9.23339H8.06532L8.55256 8.57094H9.83719ZM1 8.83223H2.89298L2.78969 8.97272H1V8.83223ZM1 8.57094H3.08541L2.98182 8.71142H1V8.57094ZM1 9.09353H2.70085L2.59787 9.23339H1V9.09353ZM15 8.97272H13.1138L13.2174 8.83223H15V8.97272ZM15 9.23339H12.9223L13.0249 9.09353H15V9.23339ZM13.4095 8.57094H15V8.71173H13.3062L13.4095 8.57094ZM12.5863 7.25342L11.7268 8.42093H10.3653L11.2254 7.25342H12.5863ZM10.2553 8.57094C10.2553 8.57094 10.1615 8.69944 10.1157 8.76092C9.95461 8.97917 10.0969 9.23309 10.6235 9.23309H12.6868L13.174 8.57094H10.2553Z" fill="#D80613"/>
</svg>
