<svg width="16" height="17" viewBox="0 0 16 17" fill="none" xmlns="http://www.w3.org/2000/svg">
<path d="M1 3.25342C1 2.14885 1.89543 1.25342 3 1.25342H13C14.1046 1.25342 15 2.14885 15 3.25342V13.2534C15 14.358 14.1046 15.2534 13 15.2534H3C1.89543 15.2534 1 14.358 1 13.2534V3.25342Z" fill="#29007C"/>
<g clip-path="url(#clip0_615_1255)">
<path d="M13.9261 9.42447C13.9261 9.2396 13.795 9.10422 13.6144 9.10422C13.4341 9.10422 13.3028 9.2396 13.3028 9.42447C13.3028 9.60904 13.4341 9.74419 13.6144 9.74419C13.795 9.74419 13.9261 9.60881 13.9261 9.42447ZM13.5325 9.44089V9.65006H13.4649V9.18882H13.6328C13.7312 9.18882 13.7764 9.2318 13.7764 9.31557C13.7764 9.36717 13.7415 9.40804 13.6966 9.41397V9.41592C13.7356 9.42214 13.7499 9.45694 13.7579 9.52062C13.7641 9.56187 13.7723 9.63341 13.787 9.65021H13.707C13.6884 9.60686 13.6903 9.54552 13.676 9.49414C13.6641 9.45507 13.6433 9.44082 13.5985 9.44082H13.5329V9.44104L13.5325 9.44089ZM13.6163 9.38127C13.6819 9.38127 13.7006 9.34632 13.7006 9.31549C13.7006 9.27905 13.6819 9.25025 13.6163 9.25025H13.5325V9.38142H13.6163V9.38127ZM13.2285 9.42447C13.2285 9.1967 13.4093 9.04272 13.6141 9.04272C13.8194 9.04272 14 9.1967 14 9.42447C14 9.65179 13.8195 9.80591 13.6141 9.80591C13.4093 9.80591 13.2285 9.65179 13.2285 9.42447Z" fill="#FF5A00"/>
<path d="M11.8924 9.73941L11.4479 9.24089L11.0073 9.73941H10.0801L10.9863 8.72138L10.0801 7.70305H11.0362L11.4852 8.19774L11.9173 7.70305H12.8399L11.9383 8.7171L12.8524 9.73941H11.8924ZM8.2998 9.73941V6.53149H10.0801V7.24653H9.05392V7.70305H10.0801V8.39108H9.05392V9.02257H10.0801V9.73941H8.2998Z" fill="#FF5A00"/>
<path d="M7.5484 6.53149V7.84434H7.54007C7.3738 7.65325 7.16598 7.58665 6.92501 7.58665C6.43122 7.58665 6.05922 7.92257 5.92865 8.36633C5.7797 7.87727 5.39564 7.5775 4.82625 7.5775C4.36373 7.5775 3.99864 7.78502 3.80792 8.12326V7.70297H2.85206V7.24661H3.89529V6.53164H2V9.73941H2.85206V8.39108H3.70134C3.67518 8.49477 3.66211 8.60132 3.66242 8.70825C3.66242 9.37709 4.17353 9.84711 4.8261 9.84711C5.37464 9.84711 5.73643 9.58934 5.9276 9.12007H5.19734C5.09864 9.26129 5.02364 9.30299 4.82617 9.30299C4.59728 9.30299 4.39973 9.1032 4.39973 8.86665H5.88665C5.95115 9.39801 6.36514 9.85618 6.93333 9.85618C7.17843 9.85618 7.40282 9.73566 7.54 9.53204H7.54825V9.73986H8.29951V6.53164H7.5484V6.53149ZM4.42343 8.40068C4.4709 8.19684 4.62893 8.06364 4.82617 8.06364C5.04337 8.06364 5.19337 8.19271 5.23274 8.40068H4.42343ZM7.09248 9.25124C6.81566 9.25124 6.64361 8.99332 6.64361 8.72393C6.64361 8.43593 6.79331 8.15926 7.09248 8.15926C7.4029 8.15926 7.52657 8.43608 7.52657 8.72393C7.52657 8.99677 7.39562 9.25124 7.09248 9.25124Z" fill="white"/>
</g>
<defs>
<clipPath id="clip0_615_1255">
<rect width="12" height="3.3264" fill="white" transform="translate(2 6.53052)"/>
</clipPath>
</defs>
</svg>
