<svg width="16" height="17" viewBox="0 0 16 17" fill="none" xmlns="http://www.w3.org/2000/svg">
<g clip-path="url(#clip0_615_753)">
<mask id="mask0_615_753" style="mask-type:luminance" maskUnits="userSpaceOnUse" x="2" y="1" width="12" height="14">
<path d="M13.6342 2.63438C12.4517 1.98123 11.1102 1.67304 10.0329 1.528C8.85651 1.36996 7.99545 1.40605 7.99972 1.3999C8.00229 1.40317 7.77258 1.39504 7.38751 1.40818C6.9947 1.42186 6.44 1.45755 5.80429 1.55075C5.30297 1.62441 4.75159 1.73362 4.18945 1.89532C3.57714 2.07175 2.95254 2.31078 2.36646 2.63438V9.31127C2.3668 10.6631 2.83228 11.8511 3.85107 12.6979C4.08198 12.8931 4.43636 13.1161 4.8433 13.3425C5.18841 13.5341 5.5715 13.7283 5.94795 13.9109C6.39196 14.1257 6.8271 14.3231 7.18149 14.4798C7.66784 14.6946 8.00239 14.832 7.99967 14.8294C7.9956 14.8329 8.73987 14.5268 9.61981 14.1161C10.5566 13.6785 11.6464 13.1233 12.149 12.698C13.1683 11.8513 13.6343 10.6631 13.6343 9.31098V5.51246V4.47567V3.99755C13.6342 3.54308 13.6342 3.08866 13.6342 2.63438" fill="white"/>
</mask>
<g mask="url(#mask0_615_753)">
<path d="M2.18604 1.28247H13.8601V14.8155H2.18604V1.28247Z" fill="url(#paint0_linear_615_753)"/>
</g>
<mask id="mask1_615_753" style="mask-type:luminance" maskUnits="userSpaceOnUse" x="2" y="2" width="12" height="13">
<path d="M13.1922 2.72159C11.544 2.54824 9.72757 2.50278 7.91969 2.86312C7.39498 2.96861 6.87091 3.1079 6.35378 3.28899C5.8012 3.48271 5.25696 3.72363 4.72862 4.02106C4.02697 4.4159 3.37855 4.89862 2.79905 5.45755C2.79891 5.58225 2.79865 5.70696 2.79826 5.83166C2.79736 6.43019 2.79682 7.02926 2.79657 7.62838C2.79613 8.19062 2.79657 8.75316 2.79702 9.31575C2.79791 10.57 3.24861 11.6252 4.13034 12.3578C4.67256 12.6384 5.21487 12.9192 5.75738 13.2C6.17155 13.4148 6.58602 13.6291 7.00034 13.8438C7.33351 14.0162 7.66663 14.1885 7.9998 14.3613C8.66386 14.0845 11.0837 13.0217 11.8698 12.3576C12.7517 11.6251 13.2018 10.5699 13.2028 9.3156C13.2041 8.1067 13.2035 6.8971 13.2015 5.68944C13.1998 4.87037 13.1974 4.0513 13.1943 3.23223C13.1934 3.0621 13.193 2.89177 13.1922 2.72159" fill="white"/>
</mask>
<g mask="url(#mask1_615_753)">
<path d="M2.73145 2.44751H13.3893V14.4686H2.73145V2.44751Z" fill="url(#paint1_linear_615_753)"/>
</g>
<path d="M7.99985 14.3613L4.13034 12.3575C4.91615 13.0216 7.33598 14.0845 7.99985 14.3613ZM13.7065 9.31063C13.7065 10.0094 13.5829 10.6524 13.3406 11.2227C13.0858 11.818 12.7012 12.3332 12.1953 12.7529C11.6862 13.1841 10.5808 13.7442 9.74318 14.1379C9.34603 14.3245 8.94599 14.5048 8.5432 14.6789C8.36256 14.7565 8.18137 14.8327 7.99965 14.9077V14.9477C8.07777 14.915 8.38779 14.7854 8.55802 14.7118C8.96092 14.5377 9.3611 14.3573 9.75845 14.1708C10.9799 13.596 11.8081 13.1288 12.2193 12.7809C12.7284 12.3574 13.1174 11.8371 13.3731 11.2365C13.6183 10.6619 13.7429 10.0147 13.7429 9.31048V2.57009L13.7066 2.59116V9.31068M2.33124 2.57079C4.39143 1.43183 6.93936 1.32183 7.93833 1.32728H8.06216C9.06097 1.32188 11.6088 1.43188 13.6689 2.57079L13.7065 2.59116L13.7427 2.57009L13.6859 2.53916C11.6183 1.39599 9.064 1.28579 8.06126 1.29119H7.93818C6.93619 1.28584 4.38107 1.39599 2.31364 2.53881L2.25708 2.56974L2.29356 2.59116L2.33124 2.57079Z" fill="#3F1800"/>
<path d="M2.62674 11.2368C2.88327 11.8374 3.27171 12.3576 3.78156 12.7816C4.19206 13.1292 5.01951 13.5964 6.2413 14.171C6.63869 14.3575 7.03895 14.5379 7.44192 14.7121C7.61146 14.7854 7.92232 14.9152 7.9994 14.9479V14.908C7.92232 14.876 7.62598 14.7525 7.45625 14.6792C7.05341 14.5051 6.65334 14.3247 6.25617 14.1381C5.41866 13.7444 4.31381 13.1843 3.8051 12.7538C3.29918 12.3334 2.9142 11.8181 2.6601 11.2228C2.41745 10.6525 2.29426 10.0093 2.29426 9.31071L2.29332 2.59124L2.25684 2.56982L2.25788 9.31071C2.25817 10.0148 2.38225 10.6621 2.62674 11.2368ZM12.7109 5.93881L12.7377 5.96052L12.7742 5.94282L12.7334 5.9101C12.5574 5.77041 12.1748 5.53812 11.5846 5.54947L11.5858 5.58551C12.1645 5.57445 12.5391 5.80184 12.7109 5.93881ZM12.6151 6.91482C12.438 6.72714 12.128 6.52385 11.7884 6.5181L11.7882 6.55443C12.1163 6.56028 12.4169 6.75698 12.5884 6.93985L12.7768 7.13973L12.7407 7.04832L12.6151 6.91482Z" fill="#3F1800"/>
<path d="M11.2809 6.92502L11.3167 6.92576C11.3252 6.58312 11.6496 6.55219 11.7887 6.55467L11.7889 6.51833C11.6723 6.5163 11.2902 6.5393 11.2809 6.92502ZM12.7411 7.04855L12.7771 7.13991L12.7747 5.94301L12.7381 5.9607L12.7411 7.04855ZM9.56401 6.2386C9.89054 6.66402 10.0624 7.28426 10.0626 8.03344H10.0988C10.0988 7.27643 9.92395 6.64811 9.59266 6.21689C9.24849 5.76812 8.73761 5.53122 8.11523 5.53027V5.56666C8.72601 5.5673 9.22698 5.79965 9.56401 6.2386ZM10.1799 6.95189C10.1799 6.45007 10.4225 6.13227 10.6265 5.95287C10.885 5.72623 11.2352 5.59244 11.5863 5.58569L11.5851 5.54966C11.2263 5.5567 10.8674 5.69346 10.6029 5.92556C10.3932 6.10986 10.1435 6.43689 10.1435 6.95189V6.96116H10.1799V6.95189Z" fill="#3F1800"/>
<path d="M11.1738 8.48467L11.192 8.45379C10.3484 7.95366 10.1825 7.5273 10.1797 6.96089H10.1433C10.1457 7.54083 10.315 7.97597 11.1738 8.48467ZM11.8191 7.54653L11.8979 7.59392L11.9163 7.56319L11.8379 7.5158C11.4913 7.30943 11.311 7.18996 11.3165 6.92555L11.2806 6.9248C11.274 7.22258 11.4906 7.35087 11.8191 7.54653ZM11.3909 10.6007L11.3912 10.6368C11.8694 10.6321 12.268 10.4673 12.5445 10.1602C12.7773 9.90073 12.9132 9.5518 12.9257 9.17887L12.8891 9.17778C12.8658 9.87773 12.3936 10.5896 11.3909 10.6007ZM11.192 8.45379L11.1738 8.48467C11.6105 8.74492 11.7318 8.88462 11.7371 9.13951L11.7734 9.13857C11.7674 8.87148 11.6372 8.71806 11.192 8.45379ZM11.652 9.48394C11.7313 9.40289 11.7739 9.28828 11.7739 9.15369C11.7739 9.14853 11.7734 9.14363 11.7734 9.13857L11.7371 9.13956C11.7374 9.14432 11.7374 9.14878 11.7374 9.15369C11.7374 9.27876 11.6987 9.384 11.6263 9.45865C11.5407 9.5463 11.4115 9.5919 11.2521 9.5919V9.62809C11.4214 9.62819 11.5601 9.57807 11.652 9.48394Z" fill="#3F1800"/>
<path d="M12.7167 8.34761C12.8473 8.57901 12.8986 8.82741 12.8892 9.17763L12.9258 9.17867C12.9424 8.56627 12.7792 8.08289 11.9166 7.56299L11.8982 7.59377C12.3051 7.83905 12.5653 8.07913 12.7167 8.34761ZM9.58645 9.8759C9.26037 10.3485 8.78805 10.5981 8.2207 10.599V10.6347C8.80074 10.6347 9.28322 10.3796 9.61594 9.89652C9.93172 9.43828 10.0988 8.79375 10.0988 8.03322H10.0626C10.0626 8.78686 9.89791 9.42395 9.58645 9.8759ZM10.3442 9.2399C10.6035 9.47253 10.968 9.62824 11.2522 9.62824V9.592C10.9763 9.592 10.6214 9.44016 10.3692 9.21352L10.188 9.05073L10.2242 9.13208L10.3442 9.2399ZM10.2571 10.2871L10.2214 10.266L10.1847 10.2864L10.2389 10.318C10.5911 10.5273 11.0005 10.6408 11.3914 10.6368L11.3911 10.6006C11.007 10.6043 10.6037 10.4932 10.2571 10.2871Z" fill="#3F1800"/>
<path d="M10.2241 9.13207L10.1879 9.05077L10.1846 10.2865L10.2213 10.2662L10.2241 9.13207ZM7.87286 6.59946L7.83618 6.57349V9.59195L7.87286 9.56434V6.59946Z" fill="#3F1800"/>
<path d="M7.87286 9.56421L7.83618 9.59187C7.89889 9.61046 7.9902 9.63202 8.09257 9.63202V9.59588C8.00725 9.59584 7.93042 9.58042 7.87286 9.56421Z" fill="#3F1800"/>
<path d="M8.67884 9.26449C8.81457 9.00558 8.88313 8.60117 8.88313 8.06055H8.84719C8.84674 8.59488 8.78017 8.99443 8.64697 9.24774C8.5219 9.48439 8.34587 9.59578 8.09212 9.59578V9.63187C8.35732 9.63182 8.54926 9.51151 8.67884 9.26449ZM7.83643 10.5626L7.87271 10.607C7.97701 10.6253 8.09301 10.6356 8.22031 10.6348V10.5992C8.07829 10.599 7.94935 10.5865 7.83643 10.5626Z" fill="#3F1800"/>
<path d="M7.83813 12.572L7.83853 12.6454L7.87482 12.6812L7.87457 12.572C7.87457 12.572 7.87308 10.8461 7.87308 10.607L7.83679 10.5626L7.83813 12.572ZM6.68862 12.5702C6.67751 10.4227 6.67449 8.21183 6.6794 6.00069L6.67975 5.96128L6.64391 5.94165L6.64356 6.00039C6.6384 8.21188 6.64143 10.4227 6.65238 12.5703L6.65308 12.6782L6.68857 12.6424L6.68862 12.5702Z" fill="#3F1800"/>
<path d="M6.6533 12.6424H7.87499V12.6813H6.6533V12.6424ZM6.34189 5.74549C6.33644 7.19135 6.33698 8.66813 6.341 10.1353L6.34124 10.1737L6.37763 10.1929L6.37743 10.1353C6.37307 8.66808 6.37337 7.19135 6.37832 5.74549L6.37852 5.63574L6.34224 5.67282L6.34189 5.74549Z" fill="#3F1800"/>
<path d="M6.30909 10.1957C5.90811 10.4678 5.37239 10.608 4.75889 10.6022L4.75854 10.6383C5.37903 10.6442 5.92253 10.502 6.32937 10.2259L6.37765 10.1928L6.34127 10.1737L6.30909 10.1957ZM5.19111 9.51668L5.15437 9.49536C5.06177 9.5426 4.93522 9.56868 4.79156 9.56769L4.79131 9.60382C4.95113 9.60521 5.09053 9.57354 5.19111 9.51668Z" fill="#3F1800"/>
<path d="M5.15154 8.11806C5.15154 8.57784 5.15258 9.03746 5.15402 9.49541L5.19075 9.51672C5.18913 9.0505 5.18831 8.58428 5.18827 8.11806C5.18827 7.32675 5.19041 6.53479 5.19378 5.75132L5.19412 5.67993L5.15838 5.64404L5.15739 5.75132C5.15402 6.5347 5.15154 7.3267 5.15154 8.11806ZM3.60189 10.1657C3.34669 9.88439 3.22038 9.46383 3.21949 8.91755H3.18311C3.18469 9.4729 3.31368 9.9014 3.57502 10.1905C3.84062 10.4824 4.23858 10.6334 4.75819 10.6384L4.75854 10.6022C4.24954 10.5966 3.86045 10.4503 3.60189 10.1657ZM4.42348 9.39304C4.4968 9.53343 4.61731 9.60223 4.79101 9.60372L4.79126 9.56763C4.68914 9.56669 4.37862 9.56381 4.37714 8.96608L4.34075 8.96633C4.34125 9.14508 4.36906 9.28869 4.42348 9.39304Z" fill="#3F1800"/>
<path d="M3.18311 5.66573H3.21984V8.91763H3.18311V5.66573ZM4.3462 5.7615C4.3413 6.82981 4.33958 7.89814 4.34105 8.96645L4.37743 8.96621C4.3755 7.90845 4.37709 6.82992 4.38224 5.7615L4.38323 5.65106L4.3465 5.68804L4.3462 5.7615ZM6.26943 5.67312L6.3422 5.67282L6.37849 5.63574L6.26874 5.63644L5.15873 5.64402L5.19447 5.67986L6.26943 5.67312Z" fill="#3F1800"/>
<path d="M3.18311 5.65088H4.38318V5.70154H3.18311V5.65088ZM8.12246 6.56111C8.38247 6.56111 8.54977 6.65872 8.66379 6.87961C8.78737 7.11815 8.8474 7.50411 8.84784 8.0605H8.88378C8.88378 7.49826 8.82286 7.106 8.69606 6.86271C8.57654 6.63195 8.39397 6.52497 8.12261 6.52438L8.12246 6.56111Z" fill="#3F1800"/>
<path d="M8.12244 6.56111V6.52443C8.01294 6.52443 7.90765 6.54738 7.83626 6.57331L7.87295 6.59928C7.93858 6.57826 8.02974 6.56111 8.12244 6.56111ZM6.64412 5.94157L6.67996 5.9612L6.71302 5.93968C7.09814 5.68855 7.55688 5.56661 8.1154 5.56661V5.53022C7.54964 5.53022 7.08377 5.6543 6.69344 5.90949L6.64412 5.94157ZM7.93432 2.93436C5.92464 3.33703 4.22146 4.19645 2.87167 5.48913L2.90806 5.50504C4.2511 4.22312 5.94392 3.36994 7.94131 2.96995C9.44317 2.67029 11.1264 2.62171 13.0835 2.82039L13.1199 2.78733C11.1453 2.58443 9.44803 2.63247 7.93432 2.93436ZM13.0945 8.11647C13.0945 8.5174 13.094 8.91735 13.0938 9.31551C13.0928 10.5486 12.6454 11.5712 11.7997 12.2738C11.0713 12.889 8.85055 13.8865 8 14.2432V14.2823C8.84128 13.9304 11.0875 12.9234 11.8231 12.3019C12.6773 11.5924 13.1291 10.5596 13.1306 9.31565C13.1309 8.91754 13.1313 8.51745 13.1313 8.11662C13.1313 6.35351 13.1273 4.5663 13.1201 2.78763L13.0837 2.82069C13.0909 4.58806 13.0945 6.36426 13.0945 8.11647ZM4.20009 12.2736C3.35465 11.5713 2.90717 10.5482 2.90627 9.31555C2.90558 8.9232 2.90558 8.52548 2.90558 8.12212C2.90558 7.26879 2.90647 6.39272 2.90806 5.50514L2.87167 5.48923C2.86949 6.76468 2.86889 8.04014 2.86989 9.3156C2.87078 10.5595 3.32297 11.592 4.17654 12.3018C4.90867 12.9198 7.15763 13.9293 7.99985 14.2823V14.2431C7.14846 13.8852 4.92458 12.8854 4.20009 12.2736ZM8.06152 1.25458L7.99975 1.25512L7.93858 1.25458C6.93362 1.24912 4.3722 1.35992 2.29714 2.5075L2.22095 2.54839L2.25723 2.56976L2.31379 2.53883C4.38128 1.396 6.93634 1.28581 7.93833 1.29121H8.06142C9.06415 1.28586 11.6186 1.396 13.6862 2.53917L13.7429 2.57011L13.7793 2.54839L13.7037 2.5075C11.6286 1.35997 9.06643 1.24912 8.06152 1.25458Z" fill="#3F1800"/>
<path d="M13.7425 9.31084C13.7425 10.0149 13.6179 10.6622 13.3727 11.2369C13.117 11.8375 12.7279 12.3578 12.2189 12.7812C11.8077 13.1293 10.9795 13.5963 9.75807 14.1711C9.36072 14.3576 8.96054 14.538 8.55764 14.7122C8.38741 14.7856 8.07739 14.9153 7.99927 14.9481V14.987C8.07739 14.9543 8.40174 14.8192 8.57222 14.7458C8.85552 14.6227 9.29408 14.4296 9.77418 14.204C10.9974 13.6283 11.8279 13.1588 12.2417 12.8089C12.7561 12.3816 13.1487 11.8574 13.4067 11.2508C13.6531 10.6721 13.7784 10.0197 13.779 9.31069V2.54858L13.7425 2.5703V9.31084Z" fill="#3F1800"/>
<path d="M7.44227 14.7122C7.0393 14.538 6.63904 14.3577 6.24165 14.1711C5.01986 13.5963 4.19246 13.1292 3.78191 12.7817C3.27206 12.3578 2.88362 11.8375 2.62709 11.2369C2.3826 10.6622 2.25857 10.0151 2.25823 9.31084L2.25723 2.56995L2.22095 2.54858L2.22184 9.31084C2.22238 10.0199 2.34716 10.6723 2.59382 11.251C2.85204 11.8574 3.2442 12.3818 3.75841 12.8091C4.17228 13.159 5.00236 13.6283 6.22593 14.2042C6.70519 14.4297 7.14415 14.6227 7.42745 14.746C7.59718 14.8193 7.92262 14.9545 7.99965 14.9871V14.9482C7.92272 14.9153 7.6118 14.7857 7.44227 14.7122Z" fill="#3F1800"/>
<mask id="mask2_615_753" style="mask-type:luminance" maskUnits="userSpaceOnUse" x="11" y="9" width="1" height="1">
<path d="M11.6263 9.45874C11.6987 9.38409 11.7374 9.27884 11.7374 9.15378C11.7374 9.14872 11.7374 9.14441 11.7372 9.13965L11.7007 9.14034C11.701 9.1451 11.701 9.14966 11.701 9.15397C11.701 9.27126 11.6669 9.36475 11.6002 9.43381C11.5219 9.51367 11.4013 9.5554 11.2522 9.5554V9.59204C11.4116 9.59199 11.5408 9.54633 11.6263 9.45874" fill="white"/>
</mask>
<g mask="url(#mask2_615_753)">
<path d="M11.6263 9.45874C11.6987 9.38409 11.7374 9.27884 11.7374 9.15378C11.7374 9.14872 11.7374 9.14441 11.7372 9.13965L11.7007 9.14034C11.701 9.1451 11.701 9.14966 11.701 9.15397C11.701 9.27126 11.6669 9.36475 11.6002 9.43381C11.5219 9.51367 11.4013 9.5554 11.2522 9.5554V9.59204C11.4116 9.59199 11.5408 9.54633 11.6263 9.45874Z" fill="#492300"/>
</g>
<mask id="mask3_615_753" style="mask-type:luminance" maskUnits="userSpaceOnUse" x="11" y="9" width="1" height="1">
<path d="M11.6263 9.45874C11.6987 9.38409 11.7374 9.27884 11.7374 9.15378C11.7374 9.14872 11.7374 9.14441 11.7372 9.13965L11.7007 9.14034C11.701 9.1451 11.701 9.14966 11.701 9.15397C11.701 9.27126 11.6669 9.36475 11.6002 9.43381C11.5219 9.51367 11.4013 9.5554 11.2522 9.5554V9.59204C11.4116 9.59199 11.5408 9.54633 11.6263 9.45874" fill="white"/>
</mask>
<g mask="url(#mask3_615_753)">
<path d="M11.252 9.13965H11.7373V9.59204H11.252V9.13965Z" fill="url(#paint2_linear_615_753)"/>
</g>
<path d="M10.1878 9.05082L10.152 8.96997L10.1484 10.3068L10.1846 10.2866L10.1878 9.05082Z" fill="#3F1800"/>
<mask id="mask4_615_753" style="mask-type:luminance" maskUnits="userSpaceOnUse" x="11" y="7" width="2" height="3">
<path d="M12.9256 9.1789L12.9613 9.18039C12.9789 8.55469 12.813 8.06156 11.9351 7.53198L11.9163 7.56326C12.779 8.08307 12.9422 8.56654 12.9256 9.1789Z" fill="white"/>
</mask>
<g mask="url(#mask4_615_753)">
<path d="M12.9256 9.1789L12.9613 9.18039C12.9789 8.55469 12.813 8.06156 11.9351 7.53198L11.9163 7.56326C12.779 8.08307 12.9422 8.56654 12.9256 9.1789Z" fill="#70491C"/>
</g>
<mask id="mask5_615_753" style="mask-type:luminance" maskUnits="userSpaceOnUse" x="11" y="7" width="2" height="3">
<path d="M12.9256 9.1789L12.9613 9.18039C12.9789 8.55469 12.813 8.06156 11.9351 7.53198L11.9163 7.56326C12.779 8.08307 12.9422 8.56654 12.9256 9.1789Z" fill="white"/>
</mask>
<g mask="url(#mask5_615_753)">
<path d="M11.9163 7.53223H12.979V9.18058H11.9163V7.53223Z" fill="url(#paint3_linear_615_753)"/>
</g>
<mask id="mask6_615_753" style="mask-type:luminance" maskUnits="userSpaceOnUse" x="10" y="9" width="3" height="2">
<path d="M10.2388 10.3179L10.1846 10.2863L10.1484 10.3065L10.22 10.3497C10.5782 10.5619 10.9939 10.6773 11.3911 10.6726V10.6366C11.0005 10.6407 10.5911 10.5272 10.2388 10.3179ZM12.9258 9.17871L12.9615 9.1802C12.9489 9.56175 12.8105 9.91862 12.5713 10.1843C12.2878 10.4989 11.8802 10.6678 11.3912 10.6727V10.6366C11.8694 10.6319 12.2681 10.4671 12.5445 10.16C12.7773 9.90057 12.9133 9.55159 12.9258 9.17871Z" fill="white"/>
</mask>
<g mask="url(#mask6_615_753)">
<path d="M10.2388 10.3179L10.1846 10.2863L10.1484 10.3065L10.22 10.3497C10.5782 10.5619 10.9939 10.6773 11.3911 10.6726V10.6366C11.0005 10.6407 10.5911 10.5272 10.2388 10.3179ZM12.9258 9.17871L12.9615 9.1802C12.9489 9.56175 12.8105 9.91862 12.5713 10.1843C12.2878 10.4989 11.8802 10.6678 11.3912 10.6727V10.6366C11.8694 10.6319 12.2681 10.4671 12.5445 10.16C12.7773 9.90057 12.9133 9.55159 12.9258 9.17871Z" fill="#492300"/>
</g>
<mask id="mask7_615_753" style="mask-type:luminance" maskUnits="userSpaceOnUse" x="10" y="9" width="3" height="2">
<path d="M10.2388 10.3179L10.1846 10.2863L10.1484 10.3065L10.22 10.3497C10.5782 10.5619 10.9939 10.6773 11.3911 10.6726V10.6366C11.0005 10.6407 10.5911 10.5272 10.2388 10.3179ZM12.9258 9.17871L12.9615 9.1802C12.9489 9.56175 12.8105 9.91862 12.5713 10.1843C12.2878 10.4989 11.8802 10.6678 11.3912 10.6727V10.6366C11.8694 10.6319 12.2681 10.4671 12.5445 10.16C12.7773 9.90057 12.9133 9.55159 12.9258 9.17871Z" fill="white"/>
</mask>
<g mask="url(#mask7_615_753)">
<path d="M10.1487 9.17871H12.9616V10.6773H10.1487V9.17871Z" fill="url(#paint4_linear_615_753)"/>
</g>
<mask id="mask8_615_753" style="mask-type:luminance" maskUnits="userSpaceOnUse" x="10" y="8" width="2" height="2">
<path d="M10.3691 9.21361C10.6215 9.44016 10.9762 9.59209 11.2521 9.59209V9.55541C10.9883 9.55541 10.6353 9.40422 10.3933 9.1867L10.1521 8.96997L10.1879 9.05082L10.3691 9.21361Z" fill="white"/>
</mask>
<g mask="url(#mask8_615_753)">
<path d="M10.3691 9.21361C10.6215 9.44016 10.9762 9.59209 11.2521 9.59209V9.55541C10.9883 9.55541 10.6353 9.40422 10.3933 9.1867L10.1521 8.96997L10.1879 9.05082L10.3691 9.21361Z" fill="#663F0F"/>
</g>
<mask id="mask9_615_753" style="mask-type:luminance" maskUnits="userSpaceOnUse" x="10" y="8" width="2" height="2">
<path d="M10.3691 9.21361C10.6215 9.44016 10.9762 9.59209 11.2521 9.59209V9.55541C10.9883 9.55541 10.6353 9.40422 10.3933 9.1867L10.1521 8.96997L10.1879 9.05082L10.3691 9.21361Z" fill="white"/>
</mask>
<g mask="url(#mask9_615_753)">
<path d="M10.1521 8.96997H11.2521V9.59209H10.1521V8.96997Z" fill="url(#paint5_linear_615_753)"/>
</g>
<mask id="mask10_615_753" style="mask-type:luminance" maskUnits="userSpaceOnUse" x="11" y="6" width="1" height="2">
<path d="M11.8379 7.51579L11.9162 7.56318L11.9351 7.5319L11.8563 7.48451C11.5123 7.28002 11.3479 7.17052 11.353 6.92643L11.3165 6.92554C11.3109 7.1899 11.4912 7.30942 11.8379 7.51579Z" fill="white"/>
</mask>
<g mask="url(#mask10_615_753)">
<path d="M11.8379 7.51579L11.9162 7.56318L11.9351 7.5319L11.8563 7.48451C11.5123 7.28002 11.3479 7.17052 11.353 6.92643L11.3165 6.92554C11.3109 7.1899 11.4912 7.30942 11.8379 7.51579Z" fill="#70491C"/>
</g>
<mask id="mask11_615_753" style="mask-type:luminance" maskUnits="userSpaceOnUse" x="11" y="6" width="1" height="2">
<path d="M11.8379 7.51579L11.9162 7.56318L11.9351 7.5319L11.8563 7.48451C11.5123 7.28002 11.3479 7.17052 11.353 6.92643L11.3165 6.92554C11.3109 7.1899 11.4912 7.30942 11.8379 7.51579Z" fill="white"/>
</mask>
<g mask="url(#mask11_615_753)">
<path d="M11.311 6.92554H11.9352V7.56313H11.311V6.92554Z" fill="url(#paint6_linear_615_753)"/>
</g>
<mask id="mask12_615_753" style="mask-type:luminance" maskUnits="userSpaceOnUse" x="4" y="5" width="1" height="4">
<path d="M4.38207 5.76139C4.37693 6.82961 4.37532 7.89785 4.37726 8.96609H4.41354C4.41176 7.90833 4.4133 6.8298 4.4181 5.76163L4.419 5.61426L4.38306 5.65089L4.38207 5.76139" fill="white"/>
</mask>
<g mask="url(#mask12_615_753)">
<path d="M4.38207 5.76139C4.37693 6.82961 4.37532 7.89785 4.37726 8.96609H4.41354C4.41176 7.90833 4.4133 6.8298 4.4181 5.76163L4.419 5.61426L4.38306 5.65089L4.38207 5.76139Z" fill="#9C7955"/>
</g>
<mask id="mask13_615_753" style="mask-type:luminance" maskUnits="userSpaceOnUse" x="4" y="5" width="1" height="4">
<path d="M4.38207 5.76139C4.37693 6.82961 4.37532 7.89785 4.37726 8.96609H4.41354C4.41176 7.90833 4.4133 6.8298 4.4181 5.76163L4.419 5.61426L4.38306 5.65089L4.38207 5.76139" fill="white"/>
</mask>
<g mask="url(#mask13_615_753)">
<path d="M4.37549 5.61426H4.41916V8.96599H4.37549V5.61426Z" fill="url(#paint7_linear_615_753)"/>
</g>
<path d="M7.90889 6.62623L7.8728 6.59937V9.56429L7.90889 9.53588V6.62623Z" fill="#8A643E"/>
<path d="M3.14697 5.61426H4.41918V5.66556H3.14697V5.61426Z" fill="#785228"/>
<path d="M5.15147 8.11802C5.15147 7.3267 5.15395 6.53475 5.15732 5.75127L5.15831 5.644L5.12192 5.60791L5.12158 5.75127C5.11758 6.54018 5.11563 7.3291 5.11573 8.11802C5.11573 8.57046 5.11642 9.02235 5.11751 9.47276L5.1539 9.49536C5.15251 9.03742 5.15147 8.57779 5.15147 8.11802Z" fill="#70491C"/>
<mask id="mask14_615_753" style="mask-type:luminance" maskUnits="userSpaceOnUse" x="4" y="8" width="2" height="2">
<path d="M4.79156 9.56771L4.79176 9.53123C4.68885 9.53083 4.41497 9.5285 4.41373 8.96631H4.37744C4.37893 9.56394 4.68944 9.56682 4.79156 9.56771M4.79156 9.56771L4.79176 9.53123C4.9202 9.53222 5.03273 9.5114 5.11794 9.47278L5.15433 9.49539C5.06178 9.54263 4.93522 9.56855 4.79156 9.56771Z" fill="white"/>
</mask>
<g mask="url(#mask14_615_753)">
<path d="M4.79156 9.56771L4.79176 9.53123C4.68885 9.53083 4.41497 9.5285 4.41373 8.96631H4.37744C4.37893 9.56394 4.68944 9.56682 4.79156 9.56771ZM4.79156 9.56771L4.79176 9.53123C4.9202 9.53222 5.03273 9.5114 5.11794 9.47278L5.15433 9.49539C5.06178 9.54263 4.93522 9.56855 4.79156 9.56771Z" fill="#532D00"/>
</g>
<mask id="mask15_615_753" style="mask-type:luminance" maskUnits="userSpaceOnUse" x="4" y="8" width="2" height="2">
<path d="M4.79156 9.56771L4.79176 9.53123C4.68885 9.53083 4.41497 9.5285 4.41373 8.96631H4.37744C4.37893 9.56394 4.68944 9.56682 4.79156 9.56771M4.79156 9.56771L4.79176 9.53123C4.9202 9.53222 5.03273 9.5114 5.11794 9.47278L5.15433 9.49539C5.06178 9.54263 4.93522 9.56855 4.79156 9.56771Z" fill="white"/>
</mask>
<g mask="url(#mask15_615_753)">
<path d="M4.37744 8.96606H5.15433V9.56846H4.37744V8.96606Z" fill="url(#paint8_linear_615_753)"/>
</g>
<path d="M5.12231 5.60789L5.1587 5.64393L6.26871 5.63635L6.37846 5.63565L6.41465 5.59937L6.26871 5.60026L5.12231 5.60789Z" fill="#663F0F"/>
<mask id="mask16_615_753" style="mask-type:luminance" maskUnits="userSpaceOnUse" x="3" y="5" width="4" height="6">
<path d="M6.32917 10.226C5.92234 10.502 5.37884 10.6442 4.75835 10.6383L4.758 10.6746C5.38617 10.6802 5.93701 10.5357 6.34965 10.2553L6.41349 10.2119L6.37741 10.1926L6.32917 10.226M3.57518 10.1906C3.31383 9.90141 3.1847 9.47291 3.18311 8.91756H3.14673C3.14797 9.48277 3.28097 9.91881 3.54851 10.2144C3.82095 10.5139 4.22778 10.6693 4.75795 10.6747L4.7583 10.6384C4.23874 10.6333 3.84078 10.4824 3.57518 10.1906ZM3.14683 5.63037L3.18292 5.66577L3.18311 8.91761H3.14673L3.14683 5.63037V5.63037Z" fill="white"/>
</mask>
<g mask="url(#mask16_615_753)">
<path d="M6.32917 10.226C5.92234 10.502 5.37884 10.6442 4.75835 10.6383L4.758 10.6746C5.38617 10.6802 5.93701 10.5357 6.34965 10.2553L6.41349 10.2119L6.37741 10.1926L6.32917 10.226ZM3.57518 10.1906C3.31383 9.90141 3.1847 9.47291 3.18311 8.91756H3.14673C3.14797 9.48277 3.28097 9.91881 3.54851 10.2144C3.82095 10.5139 4.22778 10.6693 4.75795 10.6747L4.7583 10.6384C4.23874 10.6333 3.84078 10.4824 3.57518 10.1906ZM3.14683 5.63037L3.18292 5.66577L3.18311 8.91756H3.14673L3.14683 5.63037Z" fill="#815B33"/>
</g>
<mask id="mask17_615_753" style="mask-type:luminance" maskUnits="userSpaceOnUse" x="3" y="5" width="4" height="6">
<path d="M6.32917 10.226C5.92234 10.502 5.37884 10.6442 4.75835 10.6383L4.758 10.6746C5.38617 10.6802 5.93701 10.5357 6.34965 10.2553L6.41349 10.2119L6.37741 10.1926L6.32917 10.226M3.57518 10.1906C3.31383 9.90141 3.1847 9.47291 3.18311 8.91756H3.14673C3.14797 9.48277 3.28097 9.91881 3.54851 10.2144C3.82095 10.5139 4.22778 10.6693 4.75795 10.6747L4.7583 10.6384C4.23874 10.6333 3.84078 10.4824 3.57518 10.1906ZM3.14683 5.63037L3.18292 5.66577L3.18311 8.91761H3.14673L3.14683 5.63037V5.63037Z" fill="white"/>
</mask>
<g mask="url(#mask17_615_753)">
<path d="M3.14673 5.63037H6.41344V10.6804H3.14673V5.63037Z" fill="url(#paint9_linear_615_753)"/>
</g>
<path d="M6.37773 5.74535C6.37278 7.19121 6.37248 8.66799 6.37684 10.1352L6.37704 10.1927L6.41313 10.212L6.41293 10.1352C6.40887 8.66774 6.40887 7.19121 6.41382 5.74605L6.41412 5.59937L6.37798 5.6356L6.37773 5.74535Z" fill="#8A643E"/>
<mask id="mask18_615_753" style="mask-type:luminance" maskUnits="userSpaceOnUse" x="10" y="6" width="2" height="4">
<path d="M11.1739 8.48467L11.155 8.51605C11.5785 8.76777 11.696 8.90127 11.7008 9.14025L11.7372 9.13951C11.7318 8.88461 11.6105 8.74492 11.1739 8.48467M11.1739 8.48467L11.155 8.51605C10.7393 8.26933 10.4708 8.03272 10.3089 7.77133C10.1692 7.5433 10.109 7.3008 10.1074 6.96128L10.1436 6.96094C10.1458 7.54083 10.3151 7.97596 11.1739 8.48467Z" fill="white"/>
</mask>
<g mask="url(#mask18_615_753)">
<path d="M11.1739 8.48467L11.155 8.51605C11.5785 8.76777 11.696 8.90127 11.7008 9.14025L11.7372 9.13951C11.7318 8.88461 11.6105 8.74492 11.1739 8.48467ZM11.1739 8.48467L11.155 8.51605C10.7393 8.26933 10.4708 8.03272 10.3089 7.77133C10.1692 7.5433 10.109 7.3008 10.1074 6.96128L10.1436 6.96094C10.1458 7.54083 10.3151 7.97596 11.1739 8.48467Z" fill="#492300"/>
</g>
<mask id="mask19_615_753" style="mask-type:luminance" maskUnits="userSpaceOnUse" x="10" y="6" width="2" height="4">
<path d="M11.1739 8.48467L11.155 8.51605C11.5785 8.76777 11.696 8.90127 11.7008 9.14025L11.7372 9.13951C11.7318 8.88461 11.6105 8.74492 11.1739 8.48467M11.1739 8.48467L11.155 8.51605C10.7393 8.26933 10.4708 8.03272 10.3089 7.77133C10.1692 7.5433 10.109 7.3008 10.1074 6.96128L10.1436 6.96094C10.1458 7.54083 10.3151 7.97596 11.1739 8.48467Z" fill="white"/>
</mask>
<g mask="url(#mask19_615_753)">
<path d="M10.1072 6.96094H11.7371V9.1403H10.1072V6.96094Z" fill="url(#paint10_linear_615_753)"/>
</g>
<path d="M6.65223 12.5703C6.64127 10.4228 6.63825 8.21188 6.6434 6.0004L6.64375 5.94165L6.60736 5.92188L6.60717 6.00035C6.60221 8.21178 6.60469 10.4229 6.61599 12.5707L6.61688 12.7143L6.65297 12.6781L6.65223 12.5703Z" fill="#532D00"/>
<mask id="mask20_615_753" style="mask-type:luminance" maskUnits="userSpaceOnUse" x="7" y="8" width="2" height="2">
<path d="M8.61484 9.23053C8.49701 9.45465 8.33124 9.55905 8.09211 9.55905L8.0926 9.59578C8.34626 9.59578 8.52229 9.48449 8.64746 9.24774C8.78071 8.99443 8.84723 8.59488 8.84768 8.06055H8.81149C8.81134 8.58913 8.74501 8.98283 8.61484 9.23053M8.09211 9.55905L8.0926 9.59578C8.00719 9.59578 7.93045 9.58026 7.8728 9.56415L7.90894 9.53575C7.96015 9.54898 8.02355 9.55905 8.09211 9.55905Z" fill="white"/>
</mask>
<g mask="url(#mask20_615_753)">
<path d="M8.61484 9.23053C8.49701 9.45465 8.33124 9.55905 8.09211 9.55905L8.0926 9.59578C8.34626 9.59578 8.52229 9.48449 8.64746 9.24774C8.78071 8.99443 8.84723 8.59488 8.84768 8.06055H8.81149C8.81134 8.58913 8.74501 8.98283 8.61484 9.23053ZM8.09211 9.55905L8.0926 9.59578C8.00719 9.59578 7.93045 9.58026 7.8728 9.56415L7.90894 9.53575C7.96015 9.54898 8.02355 9.55905 8.09211 9.55905Z" fill="#492300"/>
</g>
<mask id="mask21_615_753" style="mask-type:luminance" maskUnits="userSpaceOnUse" x="7" y="8" width="2" height="2">
<path d="M8.61484 9.23053C8.49701 9.45465 8.33124 9.55905 8.09211 9.55905L8.0926 9.59578C8.34626 9.59578 8.52229 9.48449 8.64746 9.24774C8.78071 8.99443 8.84723 8.59488 8.84768 8.06055H8.81149C8.81134 8.58913 8.74501 8.98283 8.61484 9.23053M8.09211 9.55905L8.0926 9.59578C8.00719 9.59578 7.93045 9.58026 7.8728 9.56415L7.90894 9.53575C7.96015 9.54898 8.02355 9.55905 8.09211 9.55905Z" fill="white"/>
</mask>
<g mask="url(#mask21_615_753)">
<path d="M7.8728 8.06055H8.84768V9.59583H7.8728V8.06055Z" fill="url(#paint11_linear_615_753)"/>
</g>
<mask id="mask22_615_753" style="mask-type:luminance" maskUnits="userSpaceOnUse" x="7" y="6" width="2" height="3">
<path d="M8.12264 6.56128V6.59742C8.36703 6.59742 8.52462 6.68967 8.63154 6.89663C8.75264 7.12927 8.81154 7.51048 8.81183 8.06067H8.84802C8.84757 7.50423 8.78754 7.11831 8.66396 6.87983C8.54995 6.65884 8.38264 6.56128 8.12264 6.56128ZM7.90914 6.62637L7.87305 6.5995C7.93868 6.57843 8.02984 6.56128 8.12254 6.56128V6.59742C8.05044 6.59767 7.97869 6.6074 7.90914 6.62637V6.62637Z" fill="white"/>
</mask>
<g mask="url(#mask22_615_753)">
<path d="M8.1224 6.56128V6.59742C8.36678 6.59742 8.52437 6.68967 8.6313 6.89663C8.7524 7.12927 8.81129 7.51048 8.81159 8.06067H8.84778C8.84733 7.50423 8.7873 7.11831 8.66372 6.87983C8.5497 6.65884 8.3824 6.56128 8.1224 6.56128ZM7.90889 6.62637L7.8728 6.5995C7.93844 6.57843 8.0296 6.56128 8.1223 6.56128V6.59742C8.0502 6.59767 7.97845 6.6074 7.90889 6.62637Z" fill="#492300"/>
</g>
<mask id="mask23_615_753" style="mask-type:luminance" maskUnits="userSpaceOnUse" x="7" y="6" width="2" height="3">
<path d="M8.12288 6.56128V6.59742C8.36727 6.59742 8.52486 6.68967 8.63179 6.89663C8.75289 7.12927 8.81178 7.51048 8.81208 8.06067H8.84826C8.84782 7.50423 8.78779 7.11831 8.66421 6.87983C8.55019 6.65884 8.38289 6.56128 8.12288 6.56128ZM7.90938 6.62637L7.87329 6.5995C7.93892 6.57843 8.03009 6.56128 8.12278 6.56128V6.59742C8.05069 6.59767 7.97894 6.6074 7.90938 6.62637V6.62637Z" fill="white"/>
</mask>
<g mask="url(#mask23_615_753)">
<path d="M7.87305 6.56128H8.84792V8.06072H7.87305V6.56128Z" fill="url(#paint12_linear_615_753)"/>
</g>
<path d="M6.6167 12.6782H7.91096V12.7179H6.6167V12.6782Z" fill="#8A643E"/>
<mask id="mask24_615_753" style="mask-type:luminance" maskUnits="userSpaceOnUse" x="6" y="5" width="5" height="6">
<path d="M6.69323 5.9095C7.0836 5.65431 7.54943 5.53023 8.11519 5.53023V5.49414C7.54204 5.49414 7.07037 5.61941 6.6732 5.87892L6.60767 5.92179L6.64405 5.94157L6.69323 5.9095M8.11514 5.49419V5.53028C8.73751 5.53122 9.24824 5.76812 9.59257 6.21689C9.92385 6.64807 10.0987 7.27634 10.0987 8.03344H10.1354C10.1344 7.26811 9.95731 6.6322 9.62172 6.19449C9.27055 5.73684 8.7496 5.49474 8.11514 5.49419V5.49419ZM7.87313 10.6071L7.90917 10.65C8.00479 10.6641 8.10825 10.6713 8.22072 10.6713V10.6349C8.09342 10.6358 7.97743 10.6254 7.87313 10.6071ZM10.0987 8.03334H10.1354C10.1354 8.8015 9.96639 9.45292 9.64586 9.91766C9.30594 10.4103 8.81291 10.6711 8.22058 10.6713V10.6349C8.80061 10.6349 9.28309 10.3798 9.61582 9.89664C9.93164 9.43835 10.0987 8.79382 10.0987 8.03334Z" fill="white"/>
</mask>
<g mask="url(#mask24_615_753)">
<path d="M6.69323 5.9095C7.0836 5.65431 7.54943 5.53023 8.11519 5.53023V5.49414C7.54204 5.49414 7.07037 5.61941 6.6732 5.87892L6.60767 5.92179L6.64405 5.94157L6.69323 5.9095ZM8.11514 5.49419V5.53028C8.73751 5.53122 9.24824 5.76812 9.59257 6.21689C9.92385 6.64807 10.0987 7.27634 10.0987 8.03344H10.1354C10.1344 7.26811 9.95731 6.6322 9.62172 6.19449C9.27055 5.73684 8.7496 5.49474 8.11514 5.49419ZM7.87313 10.6071L7.90917 10.65C8.00479 10.6641 8.10825 10.6713 8.22072 10.6713V10.6349C8.09342 10.6358 7.97743 10.6254 7.87313 10.6071ZM10.0987 8.03334H10.1354C10.1354 8.8015 9.96639 9.45292 9.64586 9.91766C9.30594 10.4103 8.81291 10.6711 8.22058 10.6713V10.6349C8.80061 10.6349 9.28309 10.3798 9.61582 9.89664C9.93164 9.43835 10.0987 8.79382 10.0987 8.03334Z" fill="#3E1700"/>
</g>
<mask id="mask25_615_753" style="mask-type:luminance" maskUnits="userSpaceOnUse" x="6" y="5" width="5" height="6">
<path d="M6.69323 5.9095C7.0836 5.65431 7.54943 5.53023 8.11519 5.53023V5.49414C7.54204 5.49414 7.07037 5.61941 6.6732 5.87892L6.60767 5.92179L6.64405 5.94157L6.69323 5.9095M8.11514 5.49419V5.53028C8.73751 5.53122 9.24824 5.76812 9.59257 6.21689C9.92385 6.64807 10.0987 7.27634 10.0987 8.03344H10.1354C10.1344 7.26811 9.95731 6.6322 9.62172 6.19449C9.27055 5.73684 8.7496 5.49474 8.11514 5.49419V5.49419ZM7.87313 10.6071L7.90917 10.65C8.00479 10.6641 8.10825 10.6713 8.22072 10.6713V10.6349C8.09342 10.6358 7.97743 10.6254 7.87313 10.6071ZM10.0987 8.03334H10.1354C10.1354 8.8015 9.96639 9.45292 9.64586 9.91766C9.30594 10.4103 8.81291 10.6711 8.22058 10.6713V10.6349C8.80061 10.6349 9.28309 10.3798 9.61582 9.89664C9.93164 9.43835 10.0987 8.79382 10.0987 8.03334Z" fill="white"/>
</mask>
<g mask="url(#mask25_615_753)">
<path d="M6.60742 5.49414H10.1353V10.6712H6.60742V5.49414Z" fill="url(#paint13_linear_615_753)"/>
</g>
<path d="M12.777 7.1399L12.8141 7.23126L12.8109 5.92529L12.7747 5.94299L12.777 7.1399Z" fill="#8A643E"/>
<mask id="mask26_615_753" style="mask-type:luminance" maskUnits="userSpaceOnUse" x="11" y="6" width="2" height="2">
<path d="M12.5886 6.93999C12.417 6.75712 12.1165 6.56037 11.7883 6.55457L11.7873 6.59096C12.1044 6.59641 12.3955 6.7877 12.5625 6.96507L12.8138 7.23127L12.7768 7.13991L12.5886 6.93999M11.7883 6.55457L11.7873 6.59096C11.664 6.58808 11.5542 6.61569 11.4787 6.66799C11.3966 6.72386 11.3558 6.80887 11.3528 6.92655L11.3164 6.92566C11.3249 6.58302 11.6492 6.55209 11.7883 6.55457V6.55457Z" fill="white"/>
</mask>
<g mask="url(#mask26_615_753)">
<path d="M12.5886 6.93999C12.417 6.75712 12.1165 6.56037 11.7883 6.55457L11.7873 6.59096C12.1044 6.59641 12.3955 6.7877 12.5625 6.96507L12.8138 7.23127L12.7768 7.13991L12.5886 6.93999ZM11.7883 6.55457L11.7873 6.59096C11.664 6.58808 11.5542 6.61569 11.4787 6.66799C11.3966 6.72386 11.3558 6.80887 11.3528 6.92655L11.3164 6.92566C11.3249 6.58302 11.6492 6.55209 11.7883 6.55457Z" fill="#3E1700"/>
</g>
<mask id="mask27_615_753" style="mask-type:luminance" maskUnits="userSpaceOnUse" x="11" y="6" width="2" height="2">
<path d="M12.5886 6.93999C12.417 6.75712 12.1165 6.56037 11.7883 6.55457L11.7873 6.59096C12.1044 6.59641 12.3955 6.7877 12.5625 6.96507L12.8138 7.23127L12.7768 7.13991L12.5886 6.93999M11.7883 6.55457L11.7873 6.59096C11.664 6.58808 11.5542 6.61569 11.4787 6.66799C11.3966 6.72386 11.3558 6.80887 11.3528 6.92655L11.3164 6.92566C11.3249 6.58302 11.6492 6.55209 11.7883 6.55457V6.55457Z" fill="white"/>
</mask>
<g mask="url(#mask27_615_753)">
<path d="M11.3164 6.552H12.8138V7.23113H11.3164V6.552Z" fill="url(#paint14_linear_615_753)"/>
</g>
<mask id="mask28_615_753" style="mask-type:luminance" maskUnits="userSpaceOnUse" x="10" y="5" width="3" height="2">
<path d="M10.1072 6.95245V6.96132L10.1433 6.96097V6.9517C10.1433 6.43671 10.393 6.10968 10.6027 5.92537C10.8675 5.69328 11.2262 5.55651 11.585 5.54947L11.5847 5.51309C11.2167 5.52047 10.8501 5.66071 10.5782 5.89851C10.2743 6.165 10.1072 6.53917 10.1072 6.95245ZM11.585 5.54947L11.5847 5.51309C12.186 5.50174 12.5771 5.73894 12.7567 5.88195L12.811 5.92513L12.7747 5.94282L12.734 5.91011C12.5578 5.77041 12.1752 5.53817 11.585 5.54947Z" fill="white"/>
</mask>
<g mask="url(#mask28_615_753)">
<path d="M10.1072 6.95245V6.96132L10.1433 6.96097V6.9517C10.1433 6.43671 10.393 6.10968 10.6027 5.92537C10.8675 5.69328 11.2262 5.55651 11.585 5.54947L11.5847 5.51309C11.2167 5.52047 10.8501 5.66071 10.5782 5.89851C10.2743 6.165 10.1072 6.53917 10.1072 6.95245ZM11.585 5.54947L11.5847 5.51309C12.186 5.50174 12.5771 5.73894 12.7567 5.88195L12.811 5.92513L12.7747 5.94282L12.734 5.91011C12.5578 5.77041 12.1752 5.53817 11.585 5.54947Z" fill="#492300"/>
</g>
<mask id="mask29_615_753" style="mask-type:luminance" maskUnits="userSpaceOnUse" x="10" y="5" width="3" height="2">
<path d="M10.1072 6.95245V6.96132L10.1433 6.96097V6.9517C10.1433 6.43671 10.393 6.10968 10.6027 5.92537C10.8675 5.69328 11.2262 5.55651 11.585 5.54947L11.5847 5.51309C11.2167 5.52047 10.8501 5.66071 10.5782 5.89851C10.2743 6.165 10.1072 6.53917 10.1072 6.95245ZM11.585 5.54947L11.5847 5.51309C12.186 5.50174 12.5771 5.73894 12.7567 5.88195L12.811 5.92513L12.7747 5.94282L12.734 5.91011C12.5578 5.77041 12.1752 5.53817 11.585 5.54947Z" fill="white"/>
</mask>
<g mask="url(#mask29_615_753)">
<path d="M10.1072 5.50171H12.8108V6.96124H10.1072V5.50171Z" fill="url(#paint15_linear_615_753)"/>
</g>
<path d="M7.87444 12.572L7.87469 12.6813L7.91117 12.7178L7.91048 12.572L7.90889 10.6501L7.8728 10.6072C7.87295 10.8461 7.87444 12.572 7.87444 12.572Z" fill="#785228"/>
<mask id="mask30_615_753" style="mask-type:luminance" maskUnits="userSpaceOnUse" x="2" y="2" width="12" height="4">
<path d="M7.94795 3.0059C9.43758 2.70882 11.1073 2.65935 13.047 2.85327L13.0832 2.8207C11.1261 2.62192 9.44273 2.6706 7.94091 2.97026C5.94358 3.3702 4.25081 4.22333 2.90771 5.50535L2.94445 5.52126C4.2804 4.25 5.96331 3.40357 7.94795 3.0059" fill="white"/>
</mask>
<g mask="url(#mask30_615_753)">
<path d="M7.94795 3.0059C9.43758 2.70882 11.1073 2.65935 13.047 2.85327L13.0832 2.8207C11.1261 2.62192 9.44273 2.6706 7.94091 2.97026C5.94358 3.3702 4.25081 4.22333 2.90771 5.50535L2.94445 5.52126C4.2804 4.25 5.9633 3.40357 7.94795 3.0059Z" fill="#8C6741"/>
</g>
<mask id="mask31_615_753" style="mask-type:luminance" maskUnits="userSpaceOnUse" x="2" y="2" width="12" height="4">
<path d="M7.94771 3.0059C9.43733 2.70882 11.1071 2.65935 13.0468 2.85327L13.0829 2.8207C11.1258 2.62192 9.44249 2.6706 7.94067 2.97026C5.94333 3.3702 4.25056 4.22333 2.90747 5.50535L2.9442 5.52126C4.28016 4.25 5.96306 3.40357 7.94771 3.0059" fill="white"/>
</mask>
<g mask="url(#mask31_615_753)">
<path d="M2.90747 2.62207H13.0829V5.52131H2.90747V2.62207Z" fill="url(#paint16_linear_615_753)"/>
</g>
<path d="M13.0577 8.11653C13.0577 8.51747 13.0573 8.91741 13.0571 9.31557C13.056 10.5373 12.6134 11.5502 11.7755 12.2463C11.055 12.855 8.85889 13.8428 7.99927 14.2032V14.2432C8.84982 13.8868 11.0706 12.8892 11.7989 12.2739C12.6447 11.5713 13.0921 10.5487 13.0931 9.31557C13.0933 8.91746 13.0938 8.51732 13.0938 8.11653C13.0938 6.36433 13.0902 4.58813 13.0828 2.82056L13.0467 2.85313C13.0542 4.61044 13.0577 6.37508 13.0577 8.11653Z" fill="#3F1800"/>
<mask id="mask32_615_753" style="mask-type:luminance" maskUnits="userSpaceOnUse" x="2" y="5" width="6" height="10">
<path d="M2.90626 9.31574C2.90715 10.5484 3.35459 11.5715 4.20008 12.2738C4.92457 12.8856 7.14845 13.8854 7.99994 14.2433V14.2033C7.13962 13.8416 4.94073 12.8513 4.22318 12.2454C3.38636 11.5504 2.94339 10.5366 2.9423 9.31559C2.9423 8.92323 2.94195 8.52552 2.94195 8.12216C2.94195 7.27394 2.9426 6.40317 2.94473 5.52104L2.908 5.50513C2.90641 6.39276 2.90552 7.26878 2.90552 8.12211C2.90557 8.52562 2.90557 8.92338 2.90626 9.31574" fill="white"/>
</mask>
<g mask="url(#mask32_615_753)">
<path d="M2.90626 9.31574C2.90715 10.5484 3.35459 11.5715 4.20008 12.2738C4.92457 12.8856 7.14845 13.8854 7.99994 14.2433V14.2033C7.13962 13.8416 4.94073 12.8513 4.22318 12.2454C3.38636 11.5504 2.94339 10.5366 2.9423 9.31559C2.9423 8.92323 2.94195 8.52552 2.94195 8.12216C2.94195 7.27394 2.9426 6.40317 2.94473 5.52104L2.908 5.50513C2.90641 6.39276 2.90552 7.26878 2.90552 8.12211C2.90557 8.52562 2.90557 8.92338 2.90626 9.31574Z" fill="#492300"/>
</g>
<mask id="mask33_615_753" style="mask-type:luminance" maskUnits="userSpaceOnUse" x="2" y="5" width="6" height="10">
<path d="M2.90626 9.31574C2.90715 10.5484 3.35459 11.5715 4.20008 12.2738C4.92457 12.8856 7.14845 13.8854 7.99994 14.2433V14.2033C7.13962 13.8416 4.94073 12.8513 4.22318 12.2454C3.38636 11.5504 2.94339 10.5366 2.9423 9.31559C2.9423 8.92323 2.94195 8.52552 2.94195 8.12216C2.94195 7.27394 2.9426 6.40317 2.94473 5.52104L2.908 5.50513C2.90641 6.39276 2.90552 7.26878 2.90552 8.12211C2.90557 8.52562 2.90557 8.92338 2.90626 9.31574" fill="white"/>
</mask>
<g mask="url(#mask33_615_753)">
<path d="M2.90527 5.50537H7.99954V14.2434H2.90527V5.50537Z" fill="url(#paint17_linear_615_753)"/>
</g>
<path d="M9.74281 14.1382C10.5804 13.7445 11.6859 13.1844 12.1949 12.7532C12.7008 12.3335 13.0856 11.8183 13.3402 11.223C13.5826 10.6527 13.7061 10.0095 13.7061 9.31093V2.59131L13.6338 2.63444V9.31088C13.6338 10.6627 13.168 11.8511 12.1488 12.6979C11.1743 13.5226 7.9915 14.8371 7.99928 14.8293V14.9082C8.07721 14.8762 8.37355 14.7527 8.54288 14.6793C8.94565 14.5052 9.34568 14.3248 9.74281 14.1382Z" fill="#905800"/>
<mask id="mask34_615_753" style="mask-type:luminance" maskUnits="userSpaceOnUse" x="2" y="2" width="6" height="13">
<path d="M3.85129 12.6978C2.83284 11.851 2.36702 10.6627 2.36702 9.31083C2.36702 7.08517 2.36637 4.86059 2.36637 2.63419L2.2937 2.59131L2.29459 9.31083C2.29459 10.0096 2.41778 10.6527 2.66043 11.2229C2.91449 11.8182 3.29951 12.3335 3.80544 12.7539C4.31414 13.1844 5.41904 13.7444 6.2565 14.1382C6.65367 14.3248 7.05374 14.5052 7.45658 14.6793C7.62621 14.7526 7.92265 14.8762 7.99973 14.9082V14.8293C8.00861 14.8372 4.82572 13.5225 3.85129 12.6978" fill="white"/>
</mask>
<g mask="url(#mask34_615_753)">
<path d="M3.85129 12.6978C2.83284 11.851 2.36702 10.6627 2.36702 9.31083C2.36702 7.08517 2.36637 4.86059 2.36637 2.63419L2.2937 2.59131L2.29459 9.31083C2.29459 10.0096 2.41778 10.6527 2.66043 11.2229C2.91449 11.8182 3.29951 12.3335 3.80544 12.7539C4.31414 13.1844 5.41904 13.7444 6.2565 14.1382C6.65367 14.3248 7.05374 14.5052 7.45658 14.6793C7.62621 14.7526 7.92265 14.8762 7.99973 14.9082V14.8293C8.00861 14.8372 4.82572 13.5225 3.85129 12.6978Z" fill="#FFD568"/>
</g>
<mask id="mask35_615_753" style="mask-type:luminance" maskUnits="userSpaceOnUse" x="2" y="2" width="6" height="13">
<path d="M3.85129 12.6978C2.83284 11.851 2.36702 10.6627 2.36702 9.31083C2.36702 7.08517 2.36637 4.86059 2.36637 2.63419L2.2937 2.59131L2.29459 9.31083C2.29459 10.0096 2.41778 10.6527 2.66043 11.2229C2.91449 11.8182 3.29951 12.3335 3.80544 12.7539C4.31414 13.1844 5.41904 13.7444 6.2565 14.1382C6.65367 14.3248 7.05374 14.5052 7.45658 14.6793C7.62621 14.7526 7.92265 14.8762 7.99973 14.9082V14.8293C8.00861 14.8372 4.82572 13.5225 3.85129 12.6978" fill="white"/>
</mask>
<g mask="url(#mask35_615_753)">
<path d="M2.29346 2.59131H8.00841V14.9082H2.29346V2.59131Z" fill="url(#paint18_linear_615_753)"/>
</g>
<path d="M7.99964 1.39946C7.99185 1.41111 11.1612 1.2678 13.6341 2.63433L13.7065 2.59121L13.6689 2.57083C11.6086 1.43188 9.06096 1.32188 8.06214 1.32733H7.93832C6.93935 1.32193 4.39142 1.43193 2.33123 2.57083L2.2937 2.59121L2.36637 2.63409C4.83925 1.26755 8.00866 1.41111 7.99964 1.39946Z" fill="#FFD568"/>
<mask id="mask36_615_753" style="mask-type:luminance" maskUnits="userSpaceOnUse" x="11" y="6" width="1" height="1">
<path d="M11.2083 6.92316L11.2808 6.92489C11.2902 6.53918 11.6722 6.51623 11.7887 6.51811L11.7905 6.44598C11.5099 6.44033 11.2168 6.56441 11.2083 6.92316Z" fill="white"/>
</mask>
<g mask="url(#mask36_615_753)">
<path d="M11.2083 6.92316L11.2808 6.92489C11.2902 6.53918 11.6722 6.51623 11.7887 6.51811L11.7905 6.44598C11.5099 6.44033 11.2168 6.56441 11.2083 6.92316Z" fill="#905800"/>
</g>
<mask id="mask37_615_753" style="mask-type:luminance" maskUnits="userSpaceOnUse" x="11" y="6" width="1" height="1">
<path d="M11.2083 6.92316L11.2808 6.92489C11.2902 6.53918 11.6722 6.51623 11.7887 6.51811L11.7905 6.44598C11.5099 6.44033 11.2168 6.56441 11.2083 6.92316Z" fill="white"/>
</mask>
<g mask="url(#mask37_615_753)">
<path d="M11.2083 6.44043H11.7905V6.92499H11.2083V6.44043Z" fill="url(#paint19_linear_615_753)"/>
</g>
<mask id="mask38_615_753" style="mask-type:luminance" maskUnits="userSpaceOnUse" x="10" y="5" width="2" height="2">
<path d="M11.5873 5.65822L11.5866 5.58545C11.2355 5.59219 10.8853 5.72598 10.6268 5.95263C10.4228 6.13202 10.1802 6.44983 10.1802 6.95164V6.96091L10.2532 6.96022C10.2478 6.14303 10.9376 5.67046 11.5873 5.65822Z" fill="white"/>
</mask>
<g mask="url(#mask38_615_753)">
<path d="M11.5871 5.65822L11.5864 5.58545C11.2352 5.59219 10.885 5.72598 10.6265 5.95263C10.4225 6.13202 10.1799 6.44983 10.1799 6.95164V6.96091L10.253 6.96022C10.2475 6.14303 10.9373 5.67046 11.5871 5.65822Z" fill="#EFCB95"/>
</g>
<mask id="mask39_615_753" style="mask-type:luminance" maskUnits="userSpaceOnUse" x="10" y="5" width="2" height="2">
<path d="M11.5876 5.65822L11.5869 5.58545C11.2357 5.59219 10.8855 5.72598 10.627 5.95263C10.423 6.13202 10.1804 6.44983 10.1804 6.95164V6.96091L10.2535 6.96022C10.248 6.14303 10.9378 5.67046 11.5876 5.65822Z" fill="white"/>
</mask>
<g mask="url(#mask39_615_753)">
<path d="M10.1802 5.58545H11.5873V6.96091H10.1802V5.58545Z" fill="url(#paint20_linear_615_753)"/>
</g>
<mask id="mask40_615_753" style="mask-type:luminance" maskUnits="userSpaceOnUse" x="11" y="6" width="2" height="2">
<path d="M11.7904 6.44604L11.7886 6.51817C12.1281 6.52397 12.4382 6.72721 12.6152 6.91489L12.7408 7.04844L12.6678 6.86542C12.4649 6.64993 12.1357 6.4515 11.7904 6.44604" fill="white"/>
</mask>
<g mask="url(#mask40_615_753)">
<path d="M11.7904 6.44604L11.7886 6.51817C12.1281 6.52397 12.4382 6.72721 12.6152 6.91489L12.7408 7.04844L12.6678 6.86542C12.4649 6.64993 12.1357 6.4515 11.7904 6.44604Z" fill="#905800"/>
</g>
<mask id="mask41_615_753" style="mask-type:luminance" maskUnits="userSpaceOnUse" x="11" y="6" width="2" height="2">
<path d="M11.7904 6.44604L11.7886 6.51817C12.1281 6.52397 12.4382 6.72721 12.6152 6.91489L12.7408 7.04844L12.6678 6.86542C12.4649 6.64993 12.1357 6.4515 11.7904 6.44604" fill="white"/>
</mask>
<g mask="url(#mask41_615_753)">
<path d="M11.7886 6.44604H12.7408V7.04844H11.7886V6.44604Z" fill="url(#paint21_linear_615_753)"/>
</g>
<mask id="mask42_615_753" style="mask-type:luminance" maskUnits="userSpaceOnUse" x="11" y="5" width="2" height="1">
<path d="M12.6657 5.99575L12.7377 5.96061L12.7109 5.93889C12.5391 5.80193 12.1644 5.57449 11.5859 5.5856L11.5866 5.65837C12.1311 5.64796 12.4941 5.85913 12.6657 5.99575Z" fill="white"/>
</mask>
<g mask="url(#mask42_615_753)">
<path d="M12.6657 5.99575L12.7377 5.96061L12.7109 5.93889C12.5391 5.80193 12.1644 5.57449 11.5859 5.5856L11.5866 5.65837C12.1311 5.64796 12.4941 5.85913 12.6657 5.99575Z" fill="#E2AB53"/>
</g>
<mask id="mask43_615_753" style="mask-type:luminance" maskUnits="userSpaceOnUse" x="11" y="5" width="2" height="1">
<path d="M12.6654 5.99575L12.7374 5.96061L12.7106 5.93889C12.5389 5.80193 12.1642 5.57449 11.5857 5.5856L11.5864 5.65837C12.1308 5.64796 12.4938 5.85913 12.6654 5.99575Z" fill="white"/>
</mask>
<g mask="url(#mask43_615_753)">
<path d="M11.5857 5.57446H12.7374V5.99572H11.5857V5.57446Z" fill="url(#paint22_linear_615_753)"/>
</g>
<path d="M12.668 6.86547L12.741 7.04849L12.738 5.96069L12.666 5.99584C12.6667 6.28509 12.6672 6.57533 12.668 6.86547Z" fill="#905800"/>
<mask id="mask44_615_753" style="mask-type:luminance" maskUnits="userSpaceOnUse" x="11" y="6" width="1" height="2">
<path d="M11.8606 7.65651L11.898 7.59395L11.8192 7.54656C11.4906 7.351 11.274 7.22266 11.2808 6.92483L11.2082 6.9231C11.1997 7.29002 11.4938 7.43576 11.8606 7.65651Z" fill="white"/>
</mask>
<g mask="url(#mask44_615_753)">
<path d="M11.8606 7.65651L11.898 7.59395L11.8192 7.54656C11.4906 7.351 11.274 7.22266 11.2808 6.92483L11.2082 6.9231C11.1997 7.29002 11.4938 7.43576 11.8606 7.65651Z" fill="#DDAC72"/>
</g>
<mask id="mask45_615_753" style="mask-type:luminance" maskUnits="userSpaceOnUse" x="11" y="6" width="1" height="2">
<path d="M11.8606 7.65651L11.898 7.59395L11.8192 7.54656C11.4906 7.351 11.274 7.22266 11.2808 6.92483L11.2082 6.9231C11.1997 7.29002 11.4938 7.43576 11.8606 7.65651Z" fill="white"/>
</mask>
<g mask="url(#mask45_615_753)">
<path d="M11.1997 6.9231H11.898V7.65646H11.1997V6.9231Z" fill="url(#paint23_linear_615_753)"/>
</g>
<mask id="mask46_615_753" style="mask-type:luminance" maskUnits="userSpaceOnUse" x="11" y="8" width="1" height="2">
<path d="M11.7735 9.1386L11.8461 9.13736C11.839 8.82114 11.6653 8.65027 11.2289 8.3916L11.1921 8.45386C11.6373 8.71808 11.7675 8.8715 11.7735 9.1386" fill="white"/>
</mask>
<g mask="url(#mask46_615_753)">
<path d="M11.7735 9.1386L11.8461 9.13736C11.839 8.82114 11.6653 8.65027 11.2289 8.3916L11.1921 8.45386C11.6373 8.71808 11.7675 8.8715 11.7735 9.1386Z" fill="#EABD79"/>
</g>
<mask id="mask47_615_753" style="mask-type:luminance" maskUnits="userSpaceOnUse" x="11" y="8" width="1" height="2">
<path d="M11.7735 9.1386L11.8461 9.13736C11.839 8.82114 11.6653 8.65027 11.2289 8.3916L11.1921 8.45386C11.6373 8.71808 11.7675 8.8715 11.7735 9.1386" fill="white"/>
</mask>
<g mask="url(#mask47_615_753)">
<path d="M11.1921 8.3916H11.8461V9.13865H11.1921V8.3916Z" fill="url(#paint24_linear_615_753)"/>
</g>
<mask id="mask48_615_753" style="mask-type:luminance" maskUnits="userSpaceOnUse" x="10" y="10" width="2" height="1">
<path d="M10.2936 10.2249L10.2212 10.2661L10.2569 10.2871C10.6035 10.4931 11.0069 10.6042 11.3909 10.6007L11.3902 10.5278C10.9967 10.5321 10.6076 10.4107 10.2936 10.2249Z" fill="white"/>
</mask>
<g mask="url(#mask48_615_753)">
<path d="M10.2936 10.2249L10.2212 10.2661L10.2569 10.2871C10.6035 10.4931 11.0069 10.6042 11.3909 10.6007L11.3902 10.5278C10.9967 10.5321 10.6076 10.4107 10.2936 10.2249Z" fill="#C27913"/>
</g>
<mask id="mask49_615_753" style="mask-type:luminance" maskUnits="userSpaceOnUse" x="10" y="10" width="2" height="1">
<path d="M10.2936 10.2249L10.2212 10.2661L10.2569 10.2871C10.6035 10.4931 11.0069 10.6042 11.3909 10.6007L11.3902 10.5278C10.9967 10.5321 10.6076 10.4107 10.2936 10.2249Z" fill="white"/>
</mask>
<g mask="url(#mask49_615_753)">
<path d="M10.2212 10.2249H11.3909V10.6042H10.2212V10.2249Z" fill="url(#paint25_linear_615_753)"/>
</g>
<path d="M10.296 9.29423L10.2239 9.13208L10.2209 10.2661L10.2933 10.225C10.2952 9.91531 10.2956 9.60539 10.296 9.29423Z" fill="#EDC68C"/>
<mask id="mask50_615_753" style="mask-type:luminance" maskUnits="userSpaceOnUse" x="10" y="6" width="2" height="3">
<path d="M10.2532 6.96045L10.1802 6.96114C10.183 7.52755 10.3488 7.95391 11.1925 8.45404L11.2292 8.39178C10.4064 7.9037 10.2551 7.49974 10.2532 6.96045" fill="white"/>
</mask>
<g mask="url(#mask50_615_753)">
<path d="M10.253 6.96045L10.1799 6.96114C10.1827 7.52755 10.3486 7.95391 11.1922 8.45404L11.229 8.39178C10.4061 7.9037 10.2548 7.49974 10.253 6.96045Z" fill="#EFCB95"/>
</g>
<mask id="mask51_615_753" style="mask-type:luminance" maskUnits="userSpaceOnUse" x="10" y="6" width="2" height="3">
<path d="M10.2535 6.96045L10.1804 6.96114C10.1832 7.52755 10.3491 7.95391 11.1927 8.45404L11.2295 8.39178C10.4066 7.9037 10.2553 7.49974 10.2535 6.96045" fill="white"/>
</mask>
<g mask="url(#mask51_615_753)">
<path d="M10.1802 6.96045H11.2292V8.45404H10.1802V6.96045Z" fill="url(#paint26_linear_615_753)"/>
</g>
<mask id="mask52_615_753" style="mask-type:luminance" maskUnits="userSpaceOnUse" x="10" y="9" width="2" height="1">
<path d="M11.2525 9.70096V9.62839C10.9684 9.62839 10.6037 9.47269 10.3447 9.24005L10.2246 9.13208L10.2967 9.29423C10.5533 9.52538 10.9351 9.70096 11.2525 9.70096" fill="white"/>
</mask>
<g mask="url(#mask52_615_753)">
<path d="M11.2523 9.70096V9.62839C10.9681 9.62839 10.6035 9.47269 10.3445 9.24005L10.2244 9.13208L10.2965 9.29423C10.5531 9.52538 10.9349 9.70096 11.2523 9.70096Z" fill="#EABD79"/>
</g>
<mask id="mask53_615_753" style="mask-type:luminance" maskUnits="userSpaceOnUse" x="10" y="9" width="2" height="1">
<path d="M11.2528 9.70096V9.62839C10.9686 9.62839 10.604 9.47269 10.345 9.24005L10.2249 9.13208L10.297 9.29423C10.5536 9.52538 10.9354 9.70096 11.2528 9.70096" fill="white"/>
</mask>
<g mask="url(#mask53_615_753)">
<path d="M10.2246 9.13208H11.2526V9.70101H10.2246V9.13208Z" fill="url(#paint27_linear_615_753)"/>
</g>
<mask id="mask54_615_753" style="mask-type:luminance" maskUnits="userSpaceOnUse" x="11" y="9" width="2" height="2">
<path d="M11.3901 10.5278L11.3908 10.6007C12.3936 10.5896 12.8659 9.87773 12.889 9.17763L12.8169 9.17456C12.7954 9.81408 12.3704 10.5178 11.3901 10.5278Z" fill="white"/>
</mask>
<g mask="url(#mask54_615_753)">
<path d="M11.3901 10.5278L11.3908 10.6007C12.3936 10.5896 12.8659 9.87773 12.889 9.17763L12.8169 9.17456C12.7954 9.81408 12.3704 10.5178 11.3901 10.5278Z" fill="#905800"/>
</g>
<mask id="mask55_615_753" style="mask-type:luminance" maskUnits="userSpaceOnUse" x="11" y="9" width="2" height="2">
<path d="M11.3901 10.5278L11.3908 10.6007C12.3936 10.5896 12.8659 9.87773 12.889 9.17763L12.8169 9.17456C12.7954 9.81408 12.3704 10.5178 11.3901 10.5278Z" fill="white"/>
</mask>
<g mask="url(#mask55_615_753)">
<path d="M11.3901 9.17432H12.8888V10.6005H11.3901V9.17432Z" fill="url(#paint28_linear_615_753)"/>
</g>
<mask id="mask56_615_753" style="mask-type:luminance" maskUnits="userSpaceOnUse" x="11" y="9" width="1" height="1">
<path d="M11.8461 9.13745L11.7735 9.13874C11.7735 9.14375 11.774 9.14851 11.774 9.15381C11.774 9.2884 11.7315 9.40296 11.6521 9.48406C11.5602 9.57804 11.4215 9.62826 11.2522 9.62826V9.70088C11.6155 9.70093 11.8537 9.48639 11.8461 9.13745" fill="white"/>
</mask>
<g mask="url(#mask56_615_753)">
<path d="M11.8461 9.13745L11.7735 9.13874C11.7735 9.14375 11.774 9.14851 11.774 9.15381C11.774 9.2884 11.7315 9.40296 11.6521 9.48406C11.5602 9.57804 11.4215 9.62826 11.2522 9.62826V9.70088C11.6155 9.70093 11.8537 9.48639 11.8461 9.13745Z" fill="#EABD79"/>
</g>
<mask id="mask57_615_753" style="mask-type:luminance" maskUnits="userSpaceOnUse" x="11" y="9" width="1" height="1">
<path d="M11.8461 9.13745L11.7735 9.13874C11.7735 9.14375 11.774 9.14851 11.774 9.15381C11.774 9.2884 11.7315 9.40296 11.6521 9.48406C11.5602 9.57804 11.4215 9.62826 11.2522 9.62826V9.70088C11.6155 9.70093 11.8537 9.48639 11.8461 9.13745" fill="white"/>
</mask>
<g mask="url(#mask57_615_753)">
<path d="M11.2522 9.13745H11.8537V9.70088H11.2522V9.13745Z" fill="url(#paint29_linear_615_753)"/>
</g>
<mask id="mask58_615_753" style="mask-type:luminance" maskUnits="userSpaceOnUse" x="11" y="7" width="2" height="3">
<path d="M12.8169 9.17463L12.889 9.17776C12.8984 8.82753 12.8471 8.57913 12.7165 8.34773C12.5652 8.07925 12.3049 7.83913 11.898 7.59399L11.8606 7.65655C12.6837 8.15296 12.8326 8.59187 12.8169 9.17463" fill="white"/>
</mask>
<g mask="url(#mask58_615_753)">
<path d="M12.8169 9.17463L12.889 9.17776C12.8984 8.82753 12.8471 8.57913 12.7165 8.34773C12.5652 8.07925 12.3049 7.83913 11.898 7.59399L11.8606 7.65655C12.6837 8.15296 12.8326 8.59187 12.8169 9.17463Z" fill="#DDAC72"/>
</g>
<mask id="mask59_615_753" style="mask-type:luminance" maskUnits="userSpaceOnUse" x="11" y="7" width="2" height="3">
<path d="M12.8169 9.17463L12.889 9.17776C12.8984 8.82753 12.8471 8.57913 12.7165 8.34773C12.5652 8.07925 12.3049 7.83913 11.898 7.59399L11.8606 7.65655C12.6837 8.15296 12.8326 8.59187 12.8169 9.17463" fill="white"/>
</mask>
<g mask="url(#mask59_615_753)">
<path d="M11.8606 7.59399H12.8984V9.17775H11.8606V7.59399Z" fill="url(#paint30_linear_615_753)"/>
</g>
<mask id="mask60_615_753" style="mask-type:luminance" maskUnits="userSpaceOnUse" x="8" y="6" width="1" height="3">
<path d="M8.12231 6.52457C8.39382 6.52521 8.57624 6.63214 8.69586 6.86289C8.82261 7.10609 8.88349 7.49835 8.88349 8.06069L8.95655 8.0602C8.95655 6.92198 8.71063 6.45239 8.12231 6.45239V6.52457" fill="white"/>
</mask>
<g mask="url(#mask60_615_753)">
<path d="M8.12231 6.52457C8.39382 6.52521 8.57624 6.63214 8.69586 6.86289C8.82261 7.10609 8.88349 7.49835 8.88349 8.06069L8.95655 8.0602C8.95655 6.92198 8.71063 6.45239 8.12231 6.45239V6.52457Z" fill="#EABD79"/>
</g>
<mask id="mask61_615_753" style="mask-type:luminance" maskUnits="userSpaceOnUse" x="8" y="6" width="1" height="3">
<path d="M8.12231 6.52457C8.39382 6.52521 8.57624 6.63214 8.69586 6.86289C8.82261 7.10609 8.88349 7.49835 8.88349 8.06069L8.95655 8.0602C8.95655 6.92198 8.71063 6.45239 8.12231 6.45239V6.52457" fill="white"/>
</mask>
<g mask="url(#mask61_615_753)">
<path d="M8.12231 6.45239H8.95655V8.06059H8.12231V6.45239Z" fill="url(#paint31_linear_615_753)"/>
</g>
<mask id="mask62_615_753" style="mask-type:luminance" maskUnits="userSpaceOnUse" x="7" y="6" width="2" height="1">
<path d="M8.12267 6.52452V6.45239C7.98625 6.45239 7.84561 6.48511 7.76367 6.52516L7.83649 6.57345C7.90788 6.54742 8.01317 6.52452 8.12267 6.52452" fill="white"/>
</mask>
<g mask="url(#mask62_615_753)">
<path d="M8.12242 6.52452V6.45239C7.986 6.45239 7.84537 6.48511 7.76343 6.52516L7.83625 6.57345C7.90763 6.54742 8.01292 6.52452 8.12242 6.52452Z" fill="#905800"/>
</g>
<mask id="mask63_615_753" style="mask-type:luminance" maskUnits="userSpaceOnUse" x="7" y="6" width="2" height="1">
<path d="M8.12291 6.52452V6.45239C7.98649 6.45239 7.84586 6.48511 7.76392 6.52516L7.83674 6.57345C7.90812 6.54742 8.01341 6.52452 8.12291 6.52452" fill="white"/>
</mask>
<g mask="url(#mask63_615_753)">
<path d="M7.76367 6.45239H8.12267V6.5734H7.76367V6.45239Z" fill="url(#paint32_linear_615_753)"/>
</g>
<mask id="mask64_615_753" style="mask-type:luminance" maskUnits="userSpaceOnUse" x="8" y="8" width="3" height="3">
<path d="M8.2207 10.5258V10.5991C8.7879 10.5981 9.26037 10.3484 9.58645 9.87588C9.89791 9.42403 10.0625 8.78679 10.0625 8.0332H9.99021C9.99031 9.51425 9.34325 10.5249 8.2207 10.5258Z" fill="white"/>
</mask>
<g mask="url(#mask64_615_753)">
<path d="M8.2207 10.5258V10.5991C8.7879 10.5981 9.26037 10.3484 9.58645 9.87588C9.89791 9.42403 10.0625 8.78679 10.0625 8.0332H9.99021C9.99031 9.51425 9.34325 10.5249 8.2207 10.5258Z" fill="#905800"/>
</g>
<mask id="mask65_615_753" style="mask-type:luminance" maskUnits="userSpaceOnUse" x="8" y="8" width="3" height="3">
<path d="M8.2207 10.5258V10.5991C8.7879 10.5981 9.26037 10.3484 9.58645 9.87588C9.89791 9.42403 10.0625 8.78679 10.0625 8.0332H9.99021C9.99031 9.51425 9.34325 10.5249 8.2207 10.5258Z" fill="white"/>
</mask>
<g mask="url(#mask65_615_753)">
<path d="M8.2207 8.0332H10.0624V10.599H8.2207V8.0332Z" fill="url(#paint33_linear_615_753)"/>
</g>
<mask id="mask66_615_753" style="mask-type:luminance" maskUnits="userSpaceOnUse" x="6" y="5" width="1" height="8">
<path d="M6.68876 12.5702V12.6423L6.76118 12.5697C6.75024 10.38 6.74717 8.1903 6.75196 6.00059L6.67983 5.96118L6.67949 6.00059C6.67463 8.21183 6.67765 10.4227 6.68876 12.5702" fill="white"/>
</mask>
<g mask="url(#mask66_615_753)">
<path d="M6.68876 12.5702V12.6423L6.76118 12.5697C6.75024 10.38 6.74717 8.1903 6.75196 6.00059L6.67983 5.96118L6.67949 6.00059C6.67463 8.21183 6.67765 10.4227 6.68876 12.5702Z" fill="#E0B27C"/>
</g>
<mask id="mask67_615_753" style="mask-type:luminance" maskUnits="userSpaceOnUse" x="6" y="5" width="1" height="8">
<path d="M6.68876 12.5702V12.6423L6.76118 12.5697C6.75024 10.38 6.74717 8.1903 6.75196 6.00059L6.67983 5.96118L6.67949 6.00059C6.67463 8.21183 6.67765 10.4227 6.68876 12.5702" fill="white"/>
</mask>
<g mask="url(#mask67_615_753)">
<path d="M6.67456 5.96143H6.76111V12.6425H6.67456V5.96143Z" fill="url(#paint34_linear_615_753)"/>
</g>
<mask id="mask68_615_753" style="mask-type:luminance" maskUnits="userSpaceOnUse" x="7" y="6" width="1" height="4">
<path d="M7.83649 6.57343L7.76367 6.52515C7.76367 7.56164 7.76367 8.60596 7.76407 9.64349L7.83649 9.59179V6.57343" fill="white"/>
</mask>
<g mask="url(#mask68_615_753)">
<path d="M7.83625 6.57343L7.76343 6.52515C7.76343 7.56164 7.76343 8.60596 7.76382 9.64349L7.83625 9.59179V6.57343Z" fill="#905800"/>
</g>
<mask id="mask69_615_753" style="mask-type:luminance" maskUnits="userSpaceOnUse" x="7" y="6" width="1" height="4">
<path d="M7.83674 6.57343L7.76392 6.52515C7.76392 7.56164 7.76392 8.60596 7.76431 9.64349L7.83674 9.59179V6.57343" fill="white"/>
</mask>
<g mask="url(#mask69_615_753)">
<path d="M7.76343 6.52515H7.83625V9.64349H7.76343V6.52515Z" fill="url(#paint35_linear_615_753)"/>
</g>
<mask id="mask70_615_753" style="mask-type:luminance" maskUnits="userSpaceOnUse" x="8" y="5" width="3" height="4">
<path d="M9.99033 8.03333H10.0627C10.0624 7.28416 9.89059 6.66392 9.56407 6.23849C9.22703 5.79959 8.72606 5.5672 8.11529 5.56665L8.11499 5.63967C9.32444 5.64031 9.98914 6.5563 9.99033 8.03333Z" fill="white"/>
</mask>
<g mask="url(#mask70_615_753)">
<path d="M9.99033 8.03333H10.0627C10.0624 7.28416 9.89059 6.66392 9.56407 6.23849C9.22703 5.79959 8.72606 5.5672 8.11529 5.56665L8.11499 5.63967C9.32444 5.64031 9.98914 6.5563 9.99033 8.03333Z" fill="#EDC68C"/>
</g>
<mask id="mask71_615_753" style="mask-type:luminance" maskUnits="userSpaceOnUse" x="8" y="5" width="3" height="4">
<path d="M9.99033 8.03333H10.0627C10.0624 7.28416 9.89059 6.66392 9.56407 6.23849C9.22703 5.79959 8.72606 5.5672 8.11529 5.56665L8.11499 5.63967C9.32444 5.64031 9.98914 6.5563 9.99033 8.03333Z" fill="white"/>
</mask>
<g mask="url(#mask71_615_753)">
<path d="M8.11523 5.56665H10.0628V8.03333H8.11523V5.56665Z" fill="url(#paint36_linear_615_753)"/>
</g>
<mask id="mask72_615_753" style="mask-type:luminance" maskUnits="userSpaceOnUse" x="6" y="5" width="3" height="2">
<path d="M8.11537 5.63967L8.11557 5.56665C7.5571 5.56665 7.09836 5.6886 6.71324 5.93973L6.68018 5.96124L6.7523 6.00065C7.11849 5.76216 7.56414 5.63967 8.11537 5.63967" fill="white"/>
</mask>
<g mask="url(#mask72_615_753)">
<path d="M8.11513 5.63967L8.11533 5.56665C7.55685 5.56665 7.09812 5.6886 6.713 5.93973L6.67993 5.96124L6.75206 6.00065C7.11824 5.76216 7.56389 5.63967 8.11513 5.63967Z" fill="#FFECC0"/>
</g>
<mask id="mask73_615_753" style="mask-type:luminance" maskUnits="userSpaceOnUse" x="6" y="5" width="3" height="2">
<path d="M8.11562 5.63967L8.11581 5.56665C7.55734 5.56665 7.09861 5.6886 6.71348 5.93973L6.68042 5.96124L6.75255 6.00065C7.11873 5.76216 7.56438 5.63967 8.11562 5.63967" fill="white"/>
</mask>
<g mask="url(#mask73_615_753)">
<path d="M6.68018 5.56665H8.11557V6.00065H6.68018V5.56665Z" fill="url(#paint37_linear_615_753)"/>
</g>
<mask id="mask74_615_753" style="mask-type:luminance" maskUnits="userSpaceOnUse" x="7" y="10" width="2" height="1">
<path d="M7.76392 10.4697L7.83664 10.5627C7.94951 10.5865 8.07855 10.5991 8.22052 10.5991V10.5258C8.01276 10.5268 7.86509 10.4995 7.76392 10.4697Z" fill="white"/>
</mask>
<g mask="url(#mask74_615_753)">
<path d="M7.76392 10.4697L7.83664 10.5627C7.94951 10.5865 8.07855 10.5991 8.22052 10.5991V10.5258C8.01276 10.5268 7.86509 10.4995 7.76392 10.4697Z" fill="#905800"/>
</g>
<mask id="mask75_615_753" style="mask-type:luminance" maskUnits="userSpaceOnUse" x="7" y="10" width="2" height="1">
<path d="M7.76392 10.4697L7.83664 10.5627C7.94951 10.5865 8.07855 10.5991 8.22052 10.5991V10.5258C8.01276 10.5268 7.86509 10.4995 7.76392 10.4697Z" fill="white"/>
</mask>
<g mask="url(#mask75_615_753)">
<path d="M7.76392 10.4697H8.22052V10.5991H7.76392V10.4697Z" fill="url(#paint38_linear_615_753)"/>
</g>
<mask id="mask76_615_753" style="mask-type:luminance" maskUnits="userSpaceOnUse" x="7" y="10" width="1" height="3">
<path d="M7.76535 12.5719L7.83847 12.6453L7.83807 12.5719C7.83807 12.5719 7.83698 10.7324 7.83674 10.5627L7.76392 10.4697C7.76481 11.1767 7.76511 11.8799 7.76535 12.5719Z" fill="white"/>
</mask>
<g mask="url(#mask76_615_753)">
<path d="M7.76535 12.5719L7.83847 12.6453L7.83807 12.5719C7.83807 12.5719 7.83698 10.7324 7.83674 10.5627L7.76392 10.4697C7.76481 11.1767 7.76511 11.8799 7.76535 12.5719Z" fill="#905800"/>
</g>
<mask id="mask77_615_753" style="mask-type:luminance" maskUnits="userSpaceOnUse" x="7" y="10" width="1" height="3">
<path d="M7.76535 12.5719L7.83847 12.6453L7.83807 12.5719C7.83807 12.5719 7.83698 10.7324 7.83674 10.5627L7.76392 10.4697C7.76481 11.1767 7.76511 11.8799 7.76535 12.5719Z" fill="white"/>
</mask>
<g mask="url(#mask77_615_753)">
<path d="M7.76392 10.4697H7.83847V12.6455H7.76392V10.4697Z" fill="url(#paint39_linear_615_753)"/>
</g>
<path d="M6.7609 12.5696L6.68848 12.6423L7.83839 12.6454L7.76522 12.572C7.43027 12.5719 7.09556 12.5713 6.7609 12.5696Z" fill="#905800"/>
<mask id="mask78_615_753" style="mask-type:luminance" maskUnits="userSpaceOnUse" x="8" y="8" width="1" height="2">
<path d="M8.88354 8.06055L8.95661 8.06006C8.95661 9.17026 8.67703 9.70435 8.09253 9.70455V9.63182C8.35774 9.63182 8.54968 9.51146 8.67926 9.2645C8.81513 9.00569 8.88354 8.60123 8.88354 8.06055Z" fill="white"/>
</mask>
<g mask="url(#mask78_615_753)">
<path d="M8.88354 8.06055L8.95661 8.06006C8.95661 9.17026 8.67703 9.70435 8.09253 9.70455V9.63182C8.35774 9.63182 8.54968 9.51146 8.67926 9.2645C8.81513 9.00569 8.88354 8.60123 8.88354 8.06055Z" fill="#FFE4A2"/>
</g>
<mask id="mask79_615_753" style="mask-type:luminance" maskUnits="userSpaceOnUse" x="8" y="8" width="1" height="2">
<path d="M8.88354 8.06055L8.95661 8.06006C8.95661 9.17026 8.67703 9.70435 8.09253 9.70455V9.63182C8.35774 9.63182 8.54968 9.51146 8.67926 9.2645C8.81513 9.00569 8.88354 8.60123 8.88354 8.06055Z" fill="white"/>
</mask>
<g mask="url(#mask79_615_753)">
<path d="M8.09253 8.06006H8.95661V9.70454H8.09253V8.06006Z" fill="url(#paint40_linear_615_753)"/>
</g>
<path d="M8.09224 9.6319C7.98992 9.6319 7.89856 9.61039 7.83585 9.5918L7.76343 9.6435C7.83585 9.67062 7.95636 9.70457 8.09233 9.70457V9.63185" fill="#FFE4A2"/>
<mask id="mask80_615_753" style="mask-type:luminance" maskUnits="userSpaceOnUse" x="5" y="5" width="1" height="5">
<path d="M5.267 5.75211L5.19433 5.67969L5.19398 5.75107C5.19061 6.5345 5.18848 7.3265 5.18848 8.11786C5.18848 8.58503 5.18937 9.05179 5.19095 9.51643L5.26308 9.55747C5.25976 8.28978 5.261 7.0141 5.267 5.75211" fill="white"/>
</mask>
<g mask="url(#mask80_615_753)">
<path d="M5.267 5.75211L5.19433 5.67969L5.19398 5.75107C5.19061 6.5345 5.18848 7.3265 5.18848 8.11786C5.18848 8.58503 5.18937 9.05179 5.19095 9.51643L5.26308 9.55747C5.25976 8.28978 5.261 7.0141 5.267 5.75211Z" fill="#DB9A28"/>
</g>
<mask id="mask81_615_753" style="mask-type:luminance" maskUnits="userSpaceOnUse" x="5" y="5" width="1" height="5">
<path d="M5.267 5.75211L5.19433 5.67969L5.19398 5.75107C5.19061 6.5345 5.18848 7.3265 5.18848 8.11786C5.18848 8.58503 5.18937 9.05179 5.19095 9.51643L5.26308 9.55747C5.25976 8.28978 5.261 7.0141 5.267 5.75211" fill="white"/>
</mask>
<g mask="url(#mask81_615_753)">
<path d="M5.18823 5.67969H5.2667V9.55752H5.18823V5.67969Z" fill="url(#paint41_linear_615_753)"/>
</g>
<mask id="mask82_615_753" style="mask-type:luminance" maskUnits="userSpaceOnUse" x="6" y="5" width="1" height="6">
<path d="M6.26833 10.1351L6.341 10.1736L6.34075 10.1351C6.33673 8.66782 6.33619 7.19113 6.34164 5.74528L6.34199 5.67261L6.26922 5.74528C6.26377 7.20854 6.26347 8.67182 6.26833 10.1351" fill="white"/>
</mask>
<g mask="url(#mask82_615_753)">
<path d="M6.26833 10.1351L6.341 10.1736L6.34075 10.1351C6.33673 8.66782 6.33619 7.19113 6.34164 5.74528L6.34199 5.67261L6.26922 5.74528C6.26377 7.20854 6.26347 8.67182 6.26833 10.1351Z" fill="#C27913"/>
</g>
<mask id="mask83_615_753" style="mask-type:luminance" maskUnits="userSpaceOnUse" x="6" y="5" width="1" height="6">
<path d="M6.26833 10.1351L6.341 10.1736L6.34075 10.1351C6.33673 8.66782 6.33619 7.19113 6.34164 5.74528L6.34199 5.67261L6.26922 5.74528C6.26377 7.20854 6.26347 8.67182 6.26833 10.1351" fill="white"/>
</mask>
<g mask="url(#mask83_615_753)">
<path d="M6.26367 5.67261H6.34204V10.1735H6.26367V5.67261Z" fill="url(#paint42_linear_615_753)"/>
</g>
<path d="M6.26934 5.74528L6.34212 5.67261L6.26934 5.67291L5.19434 5.6797L5.26701 5.75212C5.59958 5.74929 5.93409 5.74706 6.26934 5.74528Z" fill="#F7E4CA"/>
<mask id="mask84_615_753" style="mask-type:luminance" maskUnits="userSpaceOnUse" x="4" y="10" width="3" height="1">
<path d="M4.75968 10.5292L4.75879 10.6021C5.37229 10.6079 5.90801 10.4677 6.30899 10.1956L6.34111 10.1737L6.26844 10.1353C5.88357 10.3964 5.36857 10.5348 4.75968 10.5292Z" fill="white"/>
</mask>
<g mask="url(#mask84_615_753)">
<path d="M4.75968 10.5292L4.75879 10.6021C5.37229 10.6079 5.90801 10.4677 6.30899 10.1956L6.34111 10.1737L6.26844 10.1353C5.88357 10.3964 5.36857 10.5348 4.75968 10.5292Z" fill="#905800"/>
</g>
<mask id="mask85_615_753" style="mask-type:luminance" maskUnits="userSpaceOnUse" x="4" y="10" width="3" height="1">
<path d="M4.75968 10.5292L4.75879 10.6021C5.37229 10.6079 5.90801 10.4677 6.30899 10.1956L6.34111 10.1737L6.26844 10.1353C5.88357 10.3964 5.36857 10.5348 4.75968 10.5292Z" fill="white"/>
</mask>
<g mask="url(#mask85_615_753)">
<path d="M4.75854 10.135H6.34092V10.6078H4.75854V10.135Z" fill="url(#paint43_linear_615_753)"/>
</g>
<mask id="mask86_615_753" style="mask-type:luminance" maskUnits="userSpaceOnUse" x="4" y="5" width="2" height="5">
<path d="M4.79095 9.67577C4.9935 9.67761 5.155 9.6323 5.26317 9.55754L5.19104 9.5165C5.09051 9.57336 4.95106 9.60498 4.79129 9.60364L4.79095 9.67577M4.79095 9.67577L4.79124 9.60364C4.6176 9.60216 4.49709 9.53335 4.42372 9.39297C4.36929 9.28867 4.34153 9.14501 4.34099 8.9664H4.26856C4.26911 9.25025 4.33643 9.6727 4.79095 9.67577ZM4.27347 5.7614L4.34649 5.68799L4.34614 5.7614C4.34123 6.82971 4.33952 7.89803 4.34099 8.96635H4.26856C4.26663 7.89695 4.26856 6.8263 4.27347 5.7614V5.7614Z" fill="white"/>
</mask>
<g mask="url(#mask86_615_753)">
<path d="M4.79095 9.67577C4.9935 9.67761 5.155 9.6323 5.26317 9.55754L5.19104 9.5165C5.09051 9.57336 4.95106 9.60498 4.79129 9.60364L4.79095 9.67577ZM4.79095 9.67577L4.79129 9.60364C4.61764 9.60216 4.49709 9.53335 4.42372 9.39297C4.36929 9.28867 4.34153 9.14501 4.34099 8.9664H4.26856C4.26911 9.25025 4.33643 9.6727 4.79095 9.67577ZM4.27347 5.7614L4.34649 5.68799L4.34614 5.7614C4.34123 6.82971 4.33952 7.89803 4.34099 8.96635H4.26856C4.26663 7.89695 4.26856 6.8263 4.27347 5.7614Z" fill="url(#paint44_linear_615_753)"/>
</g>
<mask id="mask87_615_753" style="mask-type:luminance" maskUnits="userSpaceOnUse" x="3" y="8" width="2" height="3">
<path d="M3.2924 8.91748H3.21948C3.22052 9.46381 3.34693 9.88432 3.60213 10.1656C3.86069 10.4502 4.24978 10.5965 4.75878 10.6022L4.75967 10.5294C3.77637 10.5192 3.29419 9.97539 3.2924 8.91748Z" fill="white"/>
</mask>
<g mask="url(#mask87_615_753)">
<path d="M3.2924 8.91748H3.21948C3.22052 9.46381 3.34693 9.88432 3.60213 10.1656C3.86069 10.4502 4.24978 10.5965 4.75878 10.6022L4.75967 10.5294C3.77637 10.5192 3.29419 9.97539 3.2924 8.91748Z" fill="#DB9A28"/>
</g>
<mask id="mask88_615_753" style="mask-type:luminance" maskUnits="userSpaceOnUse" x="3" y="8" width="2" height="3">
<path d="M3.2924 8.91748H3.21948C3.22052 9.46381 3.34693 9.88432 3.60213 10.1656C3.86069 10.4502 4.24978 10.5965 4.75878 10.6022L4.75967 10.5294C3.77637 10.5192 3.29419 9.97539 3.2924 8.91748Z" fill="white"/>
</mask>
<g mask="url(#mask88_615_753)">
<path d="M3.21948 8.91748H4.75962V10.6021H3.21948V8.91748Z" fill="url(#paint45_linear_615_753)"/>
</g>
<path d="M4.27342 5.7614L4.34644 5.68799L3.21973 5.70172L3.2925 5.77325C3.61946 5.7685 3.94644 5.76455 4.27342 5.7614Z" fill="#FAEFE1"/>
<mask id="mask89_615_753" style="mask-type:luminance" maskUnits="userSpaceOnUse" x="3" y="5" width="1" height="4">
<path d="M3.21948 8.91747H3.2924L3.2925 5.77319L3.21973 5.70166L3.21948 8.91747Z" fill="white"/>
</mask>
<g mask="url(#mask89_615_753)">
<path d="M3.21948 5.70166H3.2925V8.91747H3.21948V5.70166Z" fill="#DB9A28"/>
</g>
<mask id="mask90_615_753" style="mask-type:luminance" maskUnits="userSpaceOnUse" x="3" y="5" width="1" height="4">
<path d="M3.21948 8.91747H3.2924L3.2925 5.77319L3.21973 5.70166L3.21948 8.91747Z" fill="white"/>
</mask>
<g mask="url(#mask90_615_753)">
<path d="M3.21948 5.70166H3.2925V8.91747H3.21948V5.70166Z" fill="url(#paint46_linear_615_753)"/>
</g>
<path d="M7.9339 2.93446C9.44762 2.63252 11.1447 2.58448 13.1195 2.78753L13.1922 2.72145C11.5436 2.5481 9.7273 2.50234 7.91952 2.86298C6.11527 3.22425 4.31949 3.99187 2.79858 5.45745L2.87126 5.48928C4.22104 4.1966 5.92422 3.33718 7.9339 2.93446Z" fill="#C27913"/>
<path d="M13.1199 2.78756C13.1271 4.56624 13.1311 6.35344 13.1311 8.11655C13.1311 8.51749 13.1307 8.91743 13.1304 9.31559C13.1289 10.5595 12.677 11.5924 11.823 12.3018C11.0872 12.9233 8.84103 13.9305 7.99976 14.2823V14.3616C8.66382 14.085 11.0837 13.0217 11.87 12.3576C12.7516 11.6253 13.202 10.5698 13.2032 9.31559C13.205 7.11447 13.2019 4.90903 13.1925 2.72144L13.1199 2.78756Z" fill="#FFD568"/>
<mask id="mask91_615_753" style="mask-type:luminance" maskUnits="userSpaceOnUse" x="2" y="5" width="6" height="10">
<path d="M4.17648 12.302C3.32286 11.5921 2.87072 10.5596 2.86983 9.31572C2.86883 8.04026 2.86943 6.7648 2.87161 5.48934L2.79894 5.45752C2.79681 6.74192 2.79557 8.02979 2.79701 9.31572C2.7979 10.57 3.24816 11.6254 4.13033 12.3577C4.91678 13.0218 7.33726 14.0851 7.99984 14.3617V14.2824C7.15757 13.9294 4.90861 12.9199 4.17648 12.302" fill="white"/>
</mask>
<g mask="url(#mask91_615_753)">
<path d="M4.17648 12.302C3.32286 11.5921 2.87072 10.5596 2.86983 9.31572C2.86883 8.04026 2.86943 6.7648 2.87161 5.48934L2.79894 5.45752C2.79681 6.74192 2.79557 8.02979 2.79701 9.31572C2.7979 10.57 3.24816 11.6254 4.13033 12.3577C4.91678 13.0218 7.33726 14.0851 7.99984 14.3617V14.2824C7.15757 13.9294 4.90861 12.9199 4.17648 12.302Z" fill="#C27913"/>
</g>
<mask id="mask92_615_753" style="mask-type:luminance" maskUnits="userSpaceOnUse" x="2" y="5" width="6" height="10">
<path d="M4.17648 12.302C3.32286 11.5921 2.87072 10.5596 2.86983 9.31572C2.86883 8.04026 2.86943 6.7648 2.87161 5.48934L2.79894 5.45752C2.79681 6.74192 2.79557 8.02979 2.79701 9.31572C2.7979 10.57 3.24816 11.6254 4.13033 12.3577C4.91678 13.0218 7.33726 14.0851 7.99984 14.3617V14.2824C7.15757 13.9294 4.90861 12.9199 4.17648 12.302" fill="white"/>
</mask>
<g mask="url(#mask92_615_753)">
<path d="M2.79541 5.45752H7.99963V14.3617H2.79541V5.45752Z" fill="url(#paint47_linear_615_753)"/>
</g>
<mask id="mask93_615_753" style="mask-type:luminance" maskUnits="userSpaceOnUse" x="3" y="5" width="10" height="8">
<path d="M11.8459 9.13742C11.8391 8.8212 11.6656 8.65033 11.2289 8.39107C10.4065 7.90328 10.2548 7.49928 10.2524 6.96033C10.2475 6.1428 10.9373 5.67053 11.5873 5.65829C12.1311 5.64788 12.4946 5.85935 12.6659 5.99572C12.6668 6.28517 12.6674 6.57516 12.6676 6.86496C12.465 6.64952 12.1357 6.45213 11.7901 6.44598C11.5099 6.44072 11.2169 6.56436 11.208 6.92311C11.1999 7.28949 11.494 7.43572 11.8606 7.65647C12.6834 8.15288 12.8327 8.59129 12.8169 9.17455C12.7957 9.81377 12.3708 10.5169 11.3903 10.5277C10.9974 10.5317 10.6073 10.4104 10.2938 10.225C10.2951 9.91524 10.2961 9.60502 10.2965 9.29377C10.5533 9.52437 10.9351 9.7004 11.2519 9.7004C11.6154 9.7003 11.8537 9.4868 11.8459 9.13742ZM7.76339 6.52485C7.84533 6.48509 7.98577 6.45242 8.12239 6.45242C8.71115 6.45242 8.95573 6.92231 8.95662 8.06028C8.95608 9.16974 8.67645 9.70456 8.09234 9.70456C7.95592 9.70456 7.83626 9.67046 7.76324 9.6432C7.76314 8.60591 7.76324 7.56198 7.76339 6.52485V6.52485ZM7.76537 12.5722C7.76492 11.8793 7.76418 11.1771 7.76408 10.4699C7.86456 10.4995 8.01293 10.5265 8.22049 10.5262C9.34304 10.5251 9.98989 9.51441 9.98989 8.03336C9.9892 6.55638 9.32405 5.64044 8.11495 5.63965C7.56381 5.63965 7.11777 5.76219 6.75208 6.00068C6.74702 8.19189 6.75005 10.4247 6.7608 12.5693C7.09541 12.5712 7.43047 12.572 7.76537 12.5722ZM4.79093 9.67576C4.99348 9.67705 5.15508 9.6314 5.26325 9.55669C5.2596 8.28854 5.26084 7.02037 5.26696 5.75223C5.60111 5.74933 5.93525 5.74717 6.2694 5.74573C6.26447 7.20878 6.26417 8.67184 6.26851 10.1349C5.88373 10.3961 5.36898 10.5348 4.76005 10.5292C3.77674 10.5192 3.29436 9.97493 3.29248 8.91707L3.29258 5.77329C3.61653 5.76868 3.9441 5.76511 4.27365 5.76145C4.26859 6.8257 4.26681 7.89729 4.26859 8.96615C4.26944 9.25009 4.33661 9.67269 4.79093 9.67576Z" fill="white"/>
</mask>
<g mask="url(#mask93_615_753)">
<path d="M11.8459 9.13742C11.8391 8.8212 11.6656 8.65033 11.2289 8.39107C10.4065 7.90328 10.2548 7.49928 10.2524 6.96033C10.2475 6.1428 10.9373 5.67053 11.5873 5.65829C12.1311 5.64788 12.4946 5.85935 12.6659 5.99572C12.6668 6.28517 12.6674 6.57516 12.6676 6.86496C12.465 6.64952 12.1357 6.45213 11.7901 6.44598C11.5099 6.44072 11.2169 6.56436 11.208 6.92311C11.1999 7.28949 11.494 7.43572 11.8606 7.65647C12.6834 8.15288 12.8327 8.59129 12.8169 9.17455C12.7957 9.81377 12.3708 10.5169 11.3903 10.5277C10.9974 10.5317 10.6073 10.4104 10.2938 10.225C10.2951 9.91524 10.2961 9.60502 10.2965 9.29377C10.5533 9.52437 10.9351 9.7004 11.2519 9.7004C11.6154 9.7003 11.8537 9.4868 11.8459 9.13742ZM7.76339 6.52485C7.84533 6.48509 7.98577 6.45242 8.12239 6.45242C8.71115 6.45242 8.95573 6.92231 8.95662 8.06028C8.95608 9.16974 8.67645 9.70456 8.09234 9.70456C7.95592 9.70456 7.83626 9.67046 7.76324 9.6432C7.76314 8.60591 7.76324 7.56198 7.76339 6.52485ZM7.76537 12.5722C7.76492 11.8793 7.76418 11.1771 7.76408 10.4699C7.86456 10.4995 8.01293 10.5265 8.22049 10.5262C9.34304 10.5251 9.98989 9.51441 9.98989 8.03336C9.9892 6.55638 9.32405 5.64044 8.11495 5.63965C7.56381 5.63965 7.11777 5.76219 6.75208 6.00068C6.74702 8.19189 6.75005 10.4247 6.7608 12.5693C7.09541 12.5712 7.43047 12.572 7.76537 12.5722ZM4.79093 9.67576C4.99348 9.67705 5.15508 9.6314 5.26325 9.55669C5.2596 8.28854 5.26084 7.02037 5.26696 5.75223C5.60111 5.74933 5.93525 5.74717 6.2694 5.74573C6.26447 7.20878 6.26417 8.67184 6.26851 10.1349C5.88373 10.3961 5.36898 10.5348 4.76005 10.5292C3.77674 10.5192 3.29436 9.97493 3.29248 8.91707L3.29258 5.77329C3.61653 5.76868 3.9441 5.76511 4.27365 5.76145C4.26859 6.8257 4.26681 7.89729 4.26859 8.96615C4.26944 9.25009 4.33661 9.67269 4.79093 9.67576Z" fill="#DA9017"/>
</g>
<mask id="mask94_615_753" style="mask-type:luminance" maskUnits="userSpaceOnUse" x="3" y="5" width="10" height="8">
<path d="M11.8459 9.13742C11.8391 8.8212 11.6656 8.65033 11.2289 8.39107C10.4065 7.90328 10.2548 7.49928 10.2524 6.96033C10.2475 6.1428 10.9373 5.67053 11.5873 5.65829C12.1311 5.64788 12.4946 5.85935 12.6659 5.99572C12.6668 6.28517 12.6674 6.57516 12.6676 6.86496C12.465 6.64952 12.1357 6.45213 11.7901 6.44598C11.5099 6.44072 11.2169 6.56436 11.208 6.92311C11.1999 7.28949 11.494 7.43572 11.8606 7.65647C12.6834 8.15288 12.8327 8.59129 12.8169 9.17455C12.7957 9.81377 12.3708 10.5169 11.3903 10.5277C10.9974 10.5317 10.6073 10.4104 10.2938 10.225C10.2951 9.91524 10.2961 9.60502 10.2965 9.29377C10.5533 9.52437 10.9351 9.7004 11.2519 9.7004C11.6154 9.7003 11.8537 9.4868 11.8459 9.13742ZM7.76339 6.52485C7.84533 6.48509 7.98577 6.45242 8.12239 6.45242C8.71115 6.45242 8.95573 6.92231 8.95662 8.06028C8.95608 9.16974 8.67645 9.70456 8.09234 9.70456C7.95592 9.70456 7.83626 9.67046 7.76324 9.6432C7.76314 8.60591 7.76324 7.56198 7.76339 6.52485V6.52485ZM7.76537 12.5722C7.76492 11.8793 7.76418 11.1771 7.76408 10.4699C7.86456 10.4995 8.01293 10.5265 8.22049 10.5262C9.34304 10.5251 9.98989 9.51441 9.98989 8.03336C9.9892 6.55638 9.32405 5.64044 8.11495 5.63965C7.56381 5.63965 7.11777 5.76219 6.75208 6.00068C6.74702 8.19189 6.75005 10.4247 6.7608 12.5693C7.09541 12.5712 7.43047 12.572 7.76537 12.5722ZM4.79093 9.67576C4.99348 9.67705 5.15508 9.6314 5.26325 9.55669C5.2596 8.28854 5.26084 7.02037 5.26696 5.75223C5.60111 5.74933 5.93525 5.74717 6.2694 5.74573C6.26447 7.20878 6.26417 8.67184 6.26851 10.1349C5.88373 10.3961 5.36898 10.5348 4.76005 10.5292C3.77674 10.5192 3.29436 9.97493 3.29248 8.91707L3.29258 5.77329C3.61653 5.76868 3.9441 5.76511 4.27365 5.76145C4.26859 6.8257 4.26681 7.89729 4.26859 8.96615C4.26944 9.25009 4.33661 9.67269 4.79093 9.67576Z" fill="white"/>
</mask>
<g mask="url(#mask94_615_753)">
<path d="M3.26855 5.63647H12.8524V12.6096H3.26855V5.63647Z" fill="url(#paint48_radial_615_753)"/>
</g>
<path d="M11.9928 14.6599C11.9928 14.9919 11.7322 15.2524 11.3931 15.2524C11.0575 15.2524 10.7898 14.9919 10.7898 14.6599C10.7898 14.3351 11.0575 14.0745 11.3931 14.0745C11.7322 14.0745 11.9928 14.3351 11.9928 14.6599ZM10.9398 14.6599C10.9398 14.9205 11.1326 15.1276 11.3967 15.1276C11.6538 15.1276 11.8429 14.9205 11.8429 14.6635C11.8429 14.403 11.6538 14.1923 11.3931 14.1923C11.1326 14.1923 10.9398 14.4029 10.9398 14.6599ZM11.3002 14.9669H11.1647V14.3815C11.2182 14.3707 11.2932 14.3636 11.3895 14.3636C11.5002 14.3636 11.5501 14.3815 11.593 14.4064C11.6251 14.4315 11.6501 14.4778 11.6501 14.535C11.6501 14.5992 11.6001 14.6492 11.5287 14.6706V14.6777C11.5858 14.6993 11.6179 14.742 11.6358 14.8206C11.6536 14.9098 11.6643 14.9455 11.6786 14.9669H11.5323C11.5144 14.9454 11.5037 14.8919 11.4858 14.8241C11.4751 14.7598 11.4394 14.7313 11.3644 14.7313H11.3002V14.9669ZM11.304 14.6349H11.3681C11.4431 14.6349 11.5038 14.6099 11.5038 14.5492C11.5038 14.4957 11.4645 14.46 11.3788 14.46C11.3432 14.46 11.3181 14.4635 11.3039 14.4671V14.635H11.304V14.6349Z" fill="#905800"/>
</g>
<defs>
<linearGradient id="paint0_linear_615_753" x1="2.18604" y1="8.04894" x2="13.8601" y2="8.04894" gradientUnits="userSpaceOnUse">
<stop stop-color="#FFD66B"/>
<stop offset="0.282" stop-color="#FDE2D2"/>
<stop offset="0.491" stop-color="#E9AA70"/>
<stop offset="1" stop-color="#DC931D"/>
</linearGradient>
<linearGradient id="paint1_linear_615_753" x1="2.53276" y1="7.19924" x2="7.53954" y2="8.33939" gradientUnits="userSpaceOnUse">
<stop stop-color="#DBC9B8"/>
<stop offset="0.311" stop-color="#775024"/>
<stop offset="1" stop-color="#4E2700"/>
</linearGradient>
<linearGradient id="paint2_linear_615_753" x1="11.2519" y1="9.36589" x2="11.7372" y2="9.36589" gradientUnits="userSpaceOnUse">
<stop stop-color="#492300"/>
<stop offset="1" stop-color="#492300"/>
</linearGradient>
<linearGradient id="paint3_linear_615_753" x1="11.9175" y1="8.35628" x2="12.9629" y2="8.35628" gradientUnits="userSpaceOnUse">
<stop stop-color="#70491C"/>
<stop offset="1" stop-color="#9C7955"/>
</linearGradient>
<linearGradient id="paint4_linear_615_753" x1="10.1487" y1="9.92843" x2="12.962" y2="9.92843" gradientUnits="userSpaceOnUse">
<stop stop-color="#492300"/>
<stop offset="1" stop-color="#9C7955"/>
</linearGradient>
<linearGradient id="paint5_linear_615_753" x1="10.1521" y1="9.28107" x2="11.2524" y2="9.28107" gradientUnits="userSpaceOnUse">
<stop stop-color="#663F0F"/>
<stop offset="1" stop-color="#492300"/>
</linearGradient>
<linearGradient id="paint6_linear_615_753" x1="11.9353" y1="7.24431" x2="11.3169" y2="7.24431" gradientUnits="userSpaceOnUse">
<stop stop-color="#70491C"/>
<stop offset="1" stop-color="#9C7955"/>
</linearGradient>
<linearGradient id="paint7_linear_615_753" x1="4.39738" y1="8.9664" x2="4.39738" y2="5.61485" gradientUnits="userSpaceOnUse">
<stop stop-color="#9C7955"/>
<stop offset="1" stop-color="#AF906F"/>
</linearGradient>
<linearGradient id="paint8_linear_615_753" x1="5.15426" y1="9.26772" x2="4.37735" y2="9.26772" gradientUnits="userSpaceOnUse">
<stop stop-color="#532D00"/>
<stop offset="1" stop-color="#9C7955"/>
</linearGradient>
<linearGradient id="paint9_linear_615_753" x1="3.14685" y1="8.15336" x2="6.41344" y2="8.15336" gradientUnits="userSpaceOnUse">
<stop stop-color="#815B33"/>
<stop offset="1" stop-color="#9C7955"/>
</linearGradient>
<linearGradient id="paint10_linear_615_753" x1="10.1071" y1="8.05034" x2="11.7371" y2="8.05034" gradientUnits="userSpaceOnUse">
<stop stop-color="#492300"/>
<stop offset="0.5" stop-color="#9C7955"/>
<stop offset="1" stop-color="#492300"/>
</linearGradient>
<linearGradient id="paint11_linear_615_753" x1="8.84778" y1="8.82794" x2="7.87288" y2="8.82794" gradientUnits="userSpaceOnUse">
<stop stop-color="#492300"/>
<stop offset="1" stop-color="#70491C"/>
</linearGradient>
<linearGradient id="paint12_linear_615_753" x1="8.84781" y1="7.31078" x2="7.87312" y2="7.31078" gradientUnits="userSpaceOnUse">
<stop stop-color="#492300"/>
<stop offset="1" stop-color="#9C7955"/>
</linearGradient>
<linearGradient id="paint13_linear_615_753" x1="6.60799" y1="8.08215" x2="10.1355" y2="8.08215" gradientUnits="userSpaceOnUse">
<stop stop-color="#3E1700"/>
<stop offset="1" stop-color="#9C7955"/>
</linearGradient>
<linearGradient id="paint14_linear_615_753" x1="12.8137" y1="6.89143" x2="11.3165" y2="6.89143" gradientUnits="userSpaceOnUse">
<stop stop-color="#3E1700"/>
<stop offset="1" stop-color="#9C7955"/>
</linearGradient>
<linearGradient id="paint15_linear_615_753" x1="10.1068" y1="6.2312" x2="12.8107" y2="6.2312" gradientUnits="userSpaceOnUse">
<stop stop-color="#492300"/>
<stop offset="1" stop-color="#70491C"/>
</linearGradient>
<linearGradient id="paint16_linear_615_753" x1="2.90748" y1="4.0717" x2="13.0845" y2="4.0717" gradientUnits="userSpaceOnUse">
<stop stop-color="#8C6741"/>
<stop offset="1" stop-color="#9C7955"/>
</linearGradient>
<linearGradient id="paint17_linear_615_753" x1="7.99944" y1="9.8754" x2="2.90535" y2="9.8754" gradientUnits="userSpaceOnUse">
<stop stop-color="#492300"/>
<stop offset="1" stop-color="#70491C"/>
</linearGradient>
<linearGradient id="paint18_linear_615_753" x1="2.29341" y1="8.74738" x2="7.99663" y2="8.74738" gradientUnits="userSpaceOnUse">
<stop stop-color="#FFD568"/>
<stop offset="0.835" stop-color="#A36D12"/>
<stop offset="1" stop-color="#905800"/>
</linearGradient>
<linearGradient id="paint19_linear_615_753" x1="11.207" y1="6.68262" x2="11.7892" y2="6.68262" gradientUnits="userSpaceOnUse">
<stop stop-color="#905800"/>
<stop offset="1" stop-color="#905800"/>
</linearGradient>
<linearGradient id="paint20_linear_615_753" x1="10.18" y1="6.27339" x2="11.587" y2="6.27339" gradientUnits="userSpaceOnUse">
<stop stop-color="#EFCB95"/>
<stop offset="1" stop-color="#E2AB53"/>
</linearGradient>
<linearGradient id="paint21_linear_615_753" x1="11.7886" y1="6.74719" x2="12.7409" y2="6.74719" gradientUnits="userSpaceOnUse">
<stop stop-color="#905800"/>
<stop offset="0.578" stop-color="#BF8934"/>
<stop offset="1" stop-color="#E4AF5D"/>
</linearGradient>
<linearGradient id="paint22_linear_615_753" x1="11.5857" y1="5.78498" x2="12.7375" y2="5.78498" gradientUnits="userSpaceOnUse">
<stop stop-color="#E2AB53"/>
<stop offset="1" stop-color="#C27913"/>
</linearGradient>
<linearGradient id="paint23_linear_615_753" x1="11.5484" y1="7.65534" x2="11.5484" y2="6.9221" gradientUnits="userSpaceOnUse">
<stop stop-color="#DDAC72"/>
<stop offset="1" stop-color="#905800"/>
</linearGradient>
<linearGradient id="paint24_linear_615_753" x1="11.8448" y1="8.76484" x2="11.1908" y2="8.76484" gradientUnits="userSpaceOnUse">
<stop stop-color="#EABD79"/>
<stop offset="1" stop-color="#C27913"/>
</linearGradient>
<linearGradient id="paint25_linear_615_753" x1="10.2213" y1="10.4146" x2="11.3909" y2="10.4146" gradientUnits="userSpaceOnUse">
<stop stop-color="#C27913"/>
<stop offset="0.854" stop-color="#985D03"/>
<stop offset="1" stop-color="#905800"/>
</linearGradient>
<linearGradient id="paint26_linear_615_753" x1="10.18" y1="7.70729" x2="11.229" y2="7.70729" gradientUnits="userSpaceOnUse">
<stop stop-color="#EFCB95"/>
<stop offset="1" stop-color="#C27913"/>
</linearGradient>
<linearGradient id="paint27_linear_615_753" x1="11.2524" y1="9.41651" x2="10.2244" y2="9.41651" gradientUnits="userSpaceOnUse">
<stop stop-color="#EABD79"/>
<stop offset="1" stop-color="#C27913"/>
</linearGradient>
<linearGradient id="paint28_linear_615_753" x1="11.3901" y1="9.88712" x2="12.8887" y2="9.88712" gradientUnits="userSpaceOnUse">
<stop stop-color="#905800"/>
<stop offset="1" stop-color="#9A6419"/>
</linearGradient>
<linearGradient id="paint29_linear_615_753" x1="11.2531" y1="9.41932" x2="11.847" y2="9.41932" gradientUnits="userSpaceOnUse">
<stop stop-color="#EABD79"/>
<stop offset="1" stop-color="#EABD79"/>
</linearGradient>
<linearGradient id="paint30_linear_615_753" x1="12.3798" y1="7.59379" x2="12.3798" y2="9.17764" gradientUnits="userSpaceOnUse">
<stop stop-color="#DDAC72"/>
<stop offset="1" stop-color="#9A6419"/>
</linearGradient>
<linearGradient id="paint31_linear_615_753" x1="8.539" y1="8.06059" x2="8.539" y2="6.45254" gradientUnits="userSpaceOnUse">
<stop stop-color="#EABD79"/>
<stop offset="1" stop-color="#905800"/>
</linearGradient>
<linearGradient id="paint32_linear_615_753" x1="7.76375" y1="6.5129" x2="8.12274" y2="6.5129" gradientUnits="userSpaceOnUse">
<stop stop-color="#905800"/>
<stop offset="1" stop-color="#905800"/>
</linearGradient>
<linearGradient id="paint33_linear_615_753" x1="8.22072" y1="9.31714" x2="10.0625" y2="9.31714" gradientUnits="userSpaceOnUse">
<stop stop-color="#905800"/>
<stop offset="1" stop-color="#905800"/>
</linearGradient>
<linearGradient id="paint34_linear_615_753" x1="6.71785" y1="5.96058" x2="6.71785" y2="12.6427" gradientUnits="userSpaceOnUse">
<stop stop-color="#E0B27C"/>
<stop offset="1" stop-color="#C27913"/>
</linearGradient>
<linearGradient id="paint35_linear_615_753" x1="7.76304" y1="8.08373" x2="7.83582" y2="8.08373" gradientUnits="userSpaceOnUse">
<stop stop-color="#905800"/>
<stop offset="1" stop-color="#905800"/>
</linearGradient>
<linearGradient id="paint36_linear_615_753" x1="8.11498" y1="6.80014" x2="10.0624" y2="6.80014" gradientUnits="userSpaceOnUse">
<stop stop-color="#EDC68C"/>
<stop offset="1" stop-color="#905800"/>
</linearGradient>
<linearGradient id="paint37_linear_615_753" x1="6.68043" y1="5.78361" x2="8.11574" y2="5.78361" gradientUnits="userSpaceOnUse">
<stop stop-color="#FFECC0"/>
<stop offset="0.126" stop-color="#FDE7B9"/>
<stop offset="1" stop-color="#EDC68C"/>
</linearGradient>
<linearGradient id="paint38_linear_615_753" x1="8.2205" y1="10.5343" x2="7.7639" y2="10.5343" gradientUnits="userSpaceOnUse">
<stop stop-color="#905800"/>
<stop offset="1" stop-color="#C27913"/>
</linearGradient>
<linearGradient id="paint39_linear_615_753" x1="7.76473" y1="11.5571" x2="7.83927" y2="11.5571" gradientUnits="userSpaceOnUse">
<stop stop-color="#905800"/>
<stop offset="1" stop-color="#905800"/>
</linearGradient>
<linearGradient id="paint40_linear_615_753" x1="8.11063" y1="8.88241" x2="8.92005" y2="8.88241" gradientUnits="userSpaceOnUse">
<stop stop-color="#FFE4A2"/>
<stop offset="0.1" stop-color="#FFE4A2"/>
<stop offset="0.6" stop-color="#F7E4CA"/>
<stop offset="1" stop-color="#EABD79"/>
</linearGradient>
<linearGradient id="paint41_linear_615_753" x1="5.22715" y1="5.68015" x2="5.22715" y2="9.55787" gradientUnits="userSpaceOnUse">
<stop stop-color="#DB9A28"/>
<stop offset="1" stop-color="#C27913"/>
</linearGradient>
<linearGradient id="paint42_linear_615_753" x1="-123.088" y1="5.67299" x2="-123.088" y2="10.1738" gradientUnits="userSpaceOnUse">
<stop stop-color="#C27913"/>
<stop offset="0.854" stop-color="#985D03"/>
<stop offset="1" stop-color="#905800"/>
</linearGradient>
<linearGradient id="paint43_linear_615_753" x1="4.75833" y1="10.3716" x2="6.34067" y2="10.3716" gradientUnits="userSpaceOnUse">
<stop stop-color="#905800"/>
<stop offset="1" stop-color="#905800"/>
</linearGradient>
<linearGradient id="paint44_linear_615_753" x1="4.26782" y1="7.68186" x2="5.26312" y2="7.68186" gradientUnits="userSpaceOnUse">
<stop stop-color="#CE8E3E"/>
<stop offset="1" stop-color="#FFE7B0"/>
</linearGradient>
<linearGradient id="paint45_linear_615_753" x1="3.21949" y1="9.76031" x2="4.75949" y2="9.76031" gradientUnits="userSpaceOnUse">
<stop stop-color="#DB9A28"/>
<stop offset="0.938" stop-color="#955C03"/>
<stop offset="1" stop-color="#905800"/>
</linearGradient>
<linearGradient id="paint46_linear_615_753" x1="3.256" y1="8.91792" x2="3.256" y2="5.70235" gradientUnits="userSpaceOnUse">
<stop stop-color="#DB9A28"/>
<stop offset="0.938" stop-color="#955C03"/>
<stop offset="1" stop-color="#905800"/>
</linearGradient>
<linearGradient id="paint47_linear_615_753" x1="5.39663" y1="14.3616" x2="5.39663" y2="5.45805" gradientUnits="userSpaceOnUse">
<stop stop-color="#C27913"/>
<stop offset="0.3" stop-color="#DB9A28"/>
<stop offset="1" stop-color="#C27913"/>
</linearGradient>
<radialGradient id="paint48_radial_615_753" cx="0" cy="0" r="1" gradientUnits="userSpaceOnUse" gradientTransform="translate(4.97054 6.82629) scale(6.55995)">
<stop stop-color="#FFE7B0"/>
<stop offset="0.527" stop-color="#FEBF52"/>
<stop offset="0.557" stop-color="#F9B94C"/>
<stop offset="1" stop-color="#DA9017"/>
</radialGradient>
<clipPath id="clip0_615_753">
<rect width="11.5584" height="14" fill="white" transform="translate(2.2207 1.25342)"/>
</clipPath>
</defs>
</svg>
