<svg width="16" height="17" viewBox="0 0 16 17" fill="none" xmlns="http://www.w3.org/2000/svg">
<path d="M13.1299 12.6528L14.9819 3.93774H2.85232L1 12.6528H13.1299Z" fill="white"/>
<path d="M14.5828 4.25854L3.11046 4.25909L3.10366 4.29719C3.10366 4.29719 9.84805 5.68249 9.98168 5.70589C11.5314 5.97941 11.4832 6.27852 11.4832 6.27852C12.5691 6.27307 12.7025 6.31689 12.8924 6.47529C13.4634 6.95211 12.5354 8.35755 12.5354 8.35755C12.4025 8.45552 2.36964 12.33 2.36964 12.33H12.8663L14.5825 4.25882L14.5828 4.25854ZM8.62116 6.12447C8.31715 6.1223 8.10296 6.12665 8.07847 6.12502H2.71501L1.39722 12.3319C1.39722 12.3319 5.43362 10.3511 5.92732 10.0975C6.93894 9.57764 8.33757 8.89125 9.63005 8.4509C9.87636 8.36761 10.9315 8.04238 11.5461 7.9327C11.7842 7.89025 11.8854 7.84969 11.8824 7.80533C11.8732 7.67796 11.6337 7.66952 11.2282 7.68939C9.99066 7.74763 7.61988 8.69176 6.9373 9.05182L6.16682 6.66389H11.0894C11.2554 6.19959 9.53344 6.13209 8.62088 6.12502L8.62116 6.12447ZM11.2312 6.69982C11.1955 6.69982 11.1648 6.72377 11.1234 6.78011C11.0856 6.82855 11.0548 6.86148 10.9568 6.91074C10.805 6.98559 10.4073 7.0275 10.2212 7.04301C10.0426 7.05798 9.9942 7.07622 9.99121 7.14507C9.9893 7.20685 10.0176 7.24196 10.274 7.24196C10.8635 7.24196 11.9246 7.01961 12.2444 7.12139C12.4132 7.17528 12.2776 7.47602 12.1391 7.87147C12.0855 8.02388 12.1908 8.01326 12.2518 7.94631C12.313 7.87882 12.5882 7.37505 12.6181 7.11867C12.6606 6.75425 12.3481 6.69955 11.917 6.69955H11.2312V6.69982Z" fill="#15569C"/>
</svg>
