<svg width="20" height="20" viewBox="0 0 20 20" fill="none" xmlns="http://www.w3.org/2000/svg">
<g clip-path="url(#clip0_63_5819)">
<g clip-path="url(#clip1_63_5819)">
<path d="M9.77187 0.756252L1.62187 4.95781C1.44374 5.0625 1.39218 5.21875 1.39374 5.44531L1.40937 5.72813L10.0141 10.1406L18.5984 5.79844C18.5984 5.79844 18.6078 5.75469 18.6078 5.60156C18.6078 5.60156 18.6 5.4 18.5547 5.30625C18.5047 5.2 18.3984 5.10469 18.3297 5.04688C18.1469 4.89531 17.9641 4.76094 17.6531 4.58594C13.1953 2.06563 10.2641 0.767189 10.2641 0.767189C10.075 0.696877 9.91874 0.671877 9.77187 0.756252Z" fill="#DEA66C"/>
<path d="M1.52187 15.025C1.99687 15.3391 2.86406 15.7516 3.74062 16.2266C5.77812 17.3297 8.35312 18.6703 9.63437 19.1969C9.80781 19.2687 9.91093 19.3031 10.0312 19.3094C10.1203 19.3141 10.2672 19.2547 10.2672 19.2547C10.2672 19.2547 10.0281 10.6312 10.0141 10.1391C9.99999 9.65781 9.79843 9.49844 9.62031 9.38281C9.34218 9.20469 8.73906 8.92656 8.73906 8.92656C8.73906 8.92656 6.62656 7.87656 4.51718 6.77031C3.51406 6.24375 2.66718 5.70469 1.75624 5.26094C1.58906 5.18125 1.39218 5.28125 1.39218 5.46875V14.8125C1.39218 14.9016 1.44687 14.9766 1.52187 15.025Z" fill="#B38251"/>
<path d="M18.3719 15.0797L10.2844 19.25C10.1547 19.3172 10 19.2234 10 19.0766L10.0141 10.1422C10.0141 10.0562 9.9875 9.86718 9.96093 9.79218C9.8875 9.57343 10.0469 9.48593 10.1187 9.45L18.1406 5.31875C18.3531 5.20937 18.6078 5.36406 18.6078 5.60312V14.6953C18.6078 14.8562 18.5172 15.0047 18.3719 15.0797Z" fill="#966239"/>
<path opacity="0.5" d="M14.7594 7.43593C14.7594 7.43593 10.3266 9.70312 10.2547 9.89531C10.1828 10.0859 13.7328 8.37968 14.1484 8.16562C14.6187 7.92343 18.3125 5.94843 18.3125 5.73125C18.3141 5.55312 14.7594 7.43593 14.7594 7.43593Z" fill="#212121"/>
<g opacity="0.5">
<path d="M2.00156 14.5078C2.57812 14.7984 3.14999 15.0984 3.86249 15.4625V15.1844C3.15312 14.8219 2.57968 14.5234 2.00156 14.2297V14.5078Z" fill="#212121"/>
<path d="M3.21561 14.6344C3.37811 14.7172 3.45936 14.7594 3.61249 14.8375C3.61405 14.3531 3.61405 14.1109 3.61561 13.6266C3.46249 13.5484 3.3828 13.5078 3.22186 13.425C3.21874 13.9094 3.21718 14.15 3.21561 14.6344Z" fill="#212121"/>
<path d="M2.20624 14.1156C2.34061 14.1844 2.41561 14.2234 2.56874 14.3016L2.57655 13.0953C2.42186 13.0156 2.34686 12.9781 2.21093 12.9062C2.20936 13.3906 2.2078 13.6328 2.20624 14.1156Z" fill="#212121"/>
<path d="M2.96093 13.4359C3.33124 13.625 3.52812 13.7266 3.85468 13.8922C3.69218 13.5969 3.60312 13.4469 3.42499 13.1438C3.24218 13.2625 3.14687 13.3203 2.96093 13.4359Z" fill="#212121"/>
<path d="M2.00156 12.9437C2.27812 13.0875 2.46406 13.1828 2.82968 13.3703C2.64843 13.0656 2.55781 12.9141 2.39062 12.6156C2.22031 12.7391 2.14062 12.8031 2.00156 12.9437Z" fill="#212121"/>
</g>
<g opacity="0.5">
<path d="M4.9703 15.8438C5.09999 15.9109 5.16718 15.9469 5.29687 16.0141C5.28749 15.4391 5.2828 15.1516 5.27187 14.5766C5.14687 14.5109 5.08437 14.4781 4.95937 14.4141C4.96405 14.9859 4.96562 15.2719 4.9703 15.8438Z" fill="#212121"/>
<path d="M4.49374 15.7422C4.96874 15.9922 5.33749 16.1797 5.79374 16.4234C5.79061 16.2594 5.66405 16.0609 5.49217 15.9687C5.22342 15.8266 5.0703 15.7484 4.79842 15.6062C4.62342 15.5172 4.49374 15.5812 4.49374 15.7422Z" fill="#212121"/>
<path d="M5.39843 14.1188L5.59843 14.5422C5.53593 14.675 5.50311 14.7422 5.43749 14.8734C5.49374 14.8688 5.52186 14.8672 5.57811 14.8625C5.65311 14.7625 5.69061 14.7125 5.76249 14.6125C5.69686 14.4578 5.66249 14.3797 5.59374 14.225C5.78436 14.3297 5.87811 14.3828 6.05155 14.4844C6.05155 15.0438 5.68593 15.2906 5.13593 15.0031C4.58593 14.7172 4.22186 14.0781 4.22186 13.5172C4.63124 13.7219 4.90624 13.8563 5.39843 14.1188Z" fill="#212121"/>
</g>
<path d="M15.7406 6.48282C15.6625 6.425 7.27343 2.04219 7.27343 2.04219L4.6703 3.3875L13.2719 7.82344L13.2766 7.82813L15.7937 6.53907C15.7937 6.53907 15.7891 6.52657 15.775 6.51094C15.7641 6.50157 15.7453 6.4875 15.7406 6.48282Z" fill="#FFE0B2"/>
<path d="M15.7812 6.52031C14.3562 7.22187 13.2719 7.82343 13.2719 7.82343C13.3078 7.85937 13.3094 7.90625 13.3094 7.92968C13.3047 8.11093 13.3016 8.25468 13.2969 8.43437C13.275 9.36406 13.2625 10.2953 13.2312 11.225C13.3359 11.1625 13.4625 11.3 13.5578 11.225C13.7047 11.1094 14.0172 10.6 14.0641 10.5844C14.1266 10.5641 14.1937 10.5797 14.2578 10.5766C14.5391 10.5609 15.1687 9.9875 15.3031 9.96093C15.4328 9.93593 15.8609 10.0187 15.8609 10.0187C15.8609 10.0187 15.8312 7.18281 15.8203 6.70625C15.8172 6.5375 15.7812 6.52031 15.7812 6.52031Z" fill="#BF9F85"/>
</g>
</g>
<defs>
<clipPath id="clip0_63_5819">
<rect width="20" height="20" fill="white"/>
</clipPath>
<clipPath id="clip1_63_5819">
<rect width="20" height="20" fill="white"/>
</clipPath>
</defs>
</svg>
