<svg width="224" height="501" viewBox="0 0 224 501" fill="none" xmlns="http://www.w3.org/2000/svg">
<g clip-path="url(#clip0_204_14640)">
<path fill-rule="evenodd" clip-rule="evenodd" d="M72.5862 43.7095L54.4753 61.8204C53.4118 62.884 52.1174 63.4201 50.6133 63.4201H24.9449H16.8932H3.62949C1.82424 63.4201 0.352173 61.9481 0.352173 60.1428V23.7014C0.352173 22.1974 0.888341 20.9029 1.95185 19.8394L19.7428 2.04841C20.8063 0.984898 22.1008 0.44873 23.6049 0.44873H31.8849H48.4256H54.2072H70.5887C72.3939 0.44873 73.866 1.9208 73.866 3.72605V37.6966V40.6198C73.866 41.8234 73.4372 42.8586 72.5862 43.7095Z" stroke="#17C28C" stroke-width="0.703858" stroke-miterlimit="2.61313"/>
<path fill-rule="evenodd" clip-rule="evenodd" d="M33.2996 40.4215L51.4106 22.3106C52.4741 21.2471 53.7685 20.7109 55.2726 20.7109H80.941H88.9927H102.256C104.062 20.7109 105.534 22.183 105.534 23.9883V60.4296C105.534 61.9337 104.998 63.2282 103.934 64.2917L86.1431 82.0826C85.0795 83.1462 83.7851 83.6823 82.281 83.6823H74.001H57.4603H51.6786H35.2972C33.492 83.6823 32.0199 82.2103 32.0199 80.405V46.4345V43.5113C32.0199 42.3081 32.4487 41.2725 33.2996 40.4215Z" stroke="#17C28C" stroke-width="0.703858" stroke-miterlimit="2.61313"/>
<path fill-rule="evenodd" clip-rule="evenodd" d="M146.1 43.7095L127.989 61.8204C126.926 62.884 125.631 63.4201 124.127 63.4201H98.4587H90.407H77.1433C75.338 63.4201 73.866 61.9481 73.866 60.1428V23.7014C73.866 22.1974 74.4021 20.9029 75.4656 19.8394L93.2566 2.04841C94.3201 0.984898 95.6146 0.44873 97.1187 0.44873H105.399H121.939H127.721H144.102C145.908 0.44873 147.38 1.9208 147.38 3.72605V37.6966V40.6198C147.38 41.8234 146.951 42.8586 146.1 43.7095Z" stroke="#17C28C" stroke-width="0.703858" stroke-miterlimit="2.61313"/>
<path fill-rule="evenodd" clip-rule="evenodd" d="M219.614 43.7095L201.503 61.8204C200.439 62.884 199.145 63.4201 197.641 63.4201H171.973H163.921H150.657C148.852 63.4201 147.38 61.9481 147.38 60.1428V23.7014C147.38 22.1974 147.916 20.9029 148.979 19.8394L166.77 2.04841C167.834 0.984898 169.128 0.44873 170.632 0.44873H178.913H195.454H201.235H217.617C219.422 0.44873 220.894 1.9208 220.894 3.72605V37.6966V40.6198C220.894 41.8234 220.465 42.8586 219.614 43.7095H219.614Z" stroke="#17C28C" stroke-width="0.703858" stroke-miterlimit="2.61313"/>
<path fill-rule="evenodd" clip-rule="evenodd" d="M293.128 43.7095L275.017 61.8204C273.953 62.884 272.659 63.4201 271.155 63.4201H245.486H237.435H224.171C222.366 63.4201 220.894 61.9481 220.894 60.1428V23.7014C220.894 22.1974 221.43 20.9029 222.493 19.8394L240.284 2.04841C241.348 0.984898 242.642 0.44873 244.146 0.44873H252.426H268.967H274.749H291.13C292.935 0.44873 294.407 1.9208 294.407 3.72605V37.6966V40.6198C294.407 41.8234 293.979 42.8586 293.127 43.7095H293.128Z" stroke="#17C28C" stroke-width="0.703858" stroke-miterlimit="2.61313"/>
<path fill-rule="evenodd" clip-rule="evenodd" d="M106.813 40.4215L124.924 22.3106C125.988 21.2471 127.282 20.7109 128.786 20.7109H154.455H162.506H175.77C177.575 20.7109 179.048 22.183 179.048 23.9883V60.4296C179.048 61.9337 178.511 63.2282 177.448 64.2917L159.657 82.0826C158.593 83.1462 157.299 83.6823 155.795 83.6823H147.515H130.974H125.192H108.811C107.005 83.6823 105.533 82.2103 105.533 80.405V46.4345V43.5113C105.533 42.3081 105.962 41.2725 106.813 40.4215H106.813Z" stroke="#17C28C" stroke-width="0.703858" stroke-miterlimit="2.61313"/>
<path fill-rule="evenodd" clip-rule="evenodd" d="M180.327 40.4215L198.438 22.3106C199.502 21.2471 200.796 20.7109 202.3 20.7109H227.969H236.02H249.284C251.089 20.7109 252.561 22.183 252.561 23.9883V60.4296C252.561 61.9337 252.025 63.2282 250.962 64.2917L233.171 82.0826C232.107 83.1462 230.813 83.6823 229.309 83.6823H221.029H204.488H198.706H182.325C180.52 83.6823 179.047 82.2103 179.047 80.405V46.4345V43.5113C179.047 42.3081 179.476 41.2725 180.327 40.4215Z" stroke="#17C28C" stroke-width="0.703858" stroke-miterlimit="2.61313"/>
<path fill-rule="evenodd" clip-rule="evenodd" d="M180.327 123.655L198.438 105.544C199.502 104.481 200.796 103.945 202.3 103.945H227.969H236.02H249.284C251.089 103.945 252.561 105.417 252.561 107.222V143.663C252.561 145.167 252.025 146.462 250.962 147.525L233.171 165.316C232.107 166.38 230.813 166.916 229.309 166.916H221.029H204.488H198.706H182.325C180.52 166.916 179.047 165.444 179.047 163.639V129.668V126.745C179.047 125.542 179.476 124.506 180.327 123.655Z" stroke="#17C28C" stroke-width="0.703858" stroke-miterlimit="2.61313"/>
<path fill-rule="evenodd" clip-rule="evenodd" d="M106.813 123.655L124.924 105.544C125.988 104.481 127.282 103.945 128.786 103.945H154.455H162.506H175.77C177.575 103.945 179.048 105.417 179.048 107.222V143.663C179.048 145.167 178.511 146.462 177.448 147.525L159.657 165.316C158.593 166.38 157.299 166.916 155.795 166.916H147.515H130.974H125.192H108.811C107.005 166.916 105.533 165.444 105.533 163.639V129.668V126.745C105.533 125.542 105.962 124.506 106.813 123.655H106.813Z" stroke="#17C28C" stroke-width="0.703858" stroke-miterlimit="2.61313"/>
<path fill-rule="evenodd" clip-rule="evenodd" d="M33.2996 123.655L51.4106 105.544C52.4741 104.481 53.7685 103.945 55.2726 103.945H80.941H88.9927H102.256C104.062 103.945 105.534 105.417 105.534 107.222V143.663C105.534 145.167 104.998 146.462 103.934 147.525L86.1431 165.316C85.0795 166.38 83.7851 166.916 82.281 166.916H74.001H57.4603H51.6786H35.2972C33.492 166.916 32.0199 165.444 32.0199 163.639V129.668V126.745C32.0199 125.542 32.4487 124.506 33.2996 123.655Z" stroke="#17C28C" stroke-width="0.703858" stroke-miterlimit="2.61313"/>
<path fill-rule="evenodd" clip-rule="evenodd" d="M293.128 126.943L275.017 145.054C273.953 146.118 272.659 146.654 271.155 146.654H245.486H237.435H224.171C222.366 146.654 220.894 145.182 220.894 143.377V106.935C220.894 105.431 221.43 104.137 222.493 103.073L240.284 85.2823C241.348 84.2188 242.642 83.6826 244.146 83.6826H252.426H268.967H274.749H291.13C292.935 83.6826 294.407 85.1547 294.407 86.9599V120.93V123.854C294.407 125.057 293.979 126.092 293.127 126.943H293.128Z" stroke="#17C28C" stroke-width="0.703858" stroke-miterlimit="2.61313"/>
<path fill-rule="evenodd" clip-rule="evenodd" d="M219.614 126.943L201.503 145.054C200.439 146.118 199.145 146.654 197.641 146.654H171.973H163.921H150.657C148.852 146.654 147.38 145.182 147.38 143.377V106.935C147.38 105.431 147.916 104.137 148.979 103.073L166.77 85.2823C167.834 84.2188 169.128 83.6826 170.632 83.6826H178.913H195.454H201.235H217.617C219.422 83.6826 220.894 85.1547 220.894 86.9599V120.93V123.854C220.894 125.057 220.465 126.092 219.614 126.943H219.614Z" stroke="#17C28C" stroke-width="0.703858" stroke-miterlimit="2.61313"/>
<path fill-rule="evenodd" clip-rule="evenodd" d="M146.1 126.943L127.989 145.054C126.926 146.118 125.631 146.654 124.127 146.654H98.4587H90.407H77.1433C75.338 146.654 73.866 145.182 73.866 143.377V106.935C73.866 105.431 74.4021 104.137 75.4656 103.073L93.2566 85.2823C94.3201 84.2188 95.6146 83.6826 97.1187 83.6826H105.399H121.939H127.721H144.102C145.908 83.6826 147.38 85.1547 147.38 86.9599V120.93V123.854C147.38 125.057 146.951 126.092 146.1 126.943Z" stroke="#17C28C" stroke-width="0.703858" stroke-miterlimit="2.61313"/>
<path fill-rule="evenodd" clip-rule="evenodd" d="M72.5862 126.943L54.4753 145.054C53.4118 146.118 52.1174 146.654 50.6133 146.654H24.9449H16.8932H3.62949C1.82424 146.654 0.352173 145.182 0.352173 143.377V106.935C0.352173 105.431 0.888341 104.137 1.95185 103.073L19.7428 85.2823C20.8063 84.2188 22.1008 83.6826 23.6049 83.6826H31.8849H48.4256H54.2072H70.5887C72.3939 83.6826 73.866 85.1547 73.866 86.9599V120.93V123.854C73.866 125.057 73.4372 126.092 72.5862 126.943Z" stroke="#17C28C" stroke-width="0.703858" stroke-miterlimit="2.61313"/>
<path fill-rule="evenodd" clip-rule="evenodd" d="M72.5862 210.177L54.4753 228.288C53.4118 229.351 52.1174 229.888 50.6133 229.888H24.9449H16.8932H3.62949C1.82424 229.888 0.352173 228.416 0.352173 226.61V190.169C0.352173 188.665 0.888341 187.37 1.95185 186.307L19.7428 168.516C20.8063 167.452 22.1008 166.916 23.6049 166.916H31.8849H48.4256H54.2072H70.5887C72.3939 166.916 73.866 168.388 73.866 170.194V204.164V207.087C73.866 208.291 73.4372 209.326 72.5862 210.177Z" stroke="#17C28C" stroke-width="0.703858" stroke-miterlimit="2.61313"/>
<path fill-rule="evenodd" clip-rule="evenodd" d="M33.2996 206.89L51.4106 188.779C52.4741 187.715 53.7685 187.179 55.2726 187.179H80.941H88.9927H102.256C104.062 187.179 105.534 188.651 105.534 190.456V226.898C105.534 228.402 104.998 229.696 103.934 230.76L86.1431 248.551C85.0795 249.614 83.7851 250.15 82.281 250.15H74.001H57.4603H51.6786H35.2972C33.492 250.15 32.0199 248.678 32.0199 246.873V212.903V209.979C32.0199 208.776 32.4487 207.741 33.2996 206.89Z" stroke="#17C28C" stroke-width="0.703858" stroke-miterlimit="2.61313"/>
<path fill-rule="evenodd" clip-rule="evenodd" d="M146.1 210.177L127.989 228.288C126.926 229.351 125.631 229.888 124.127 229.888H98.4587H90.407H77.1433C75.338 229.888 73.866 228.416 73.866 226.61V190.169C73.866 188.665 74.4021 187.37 75.4656 186.307L93.2566 168.516C94.3201 167.452 95.6146 166.916 97.1187 166.916H105.399H121.939H127.721H144.102C145.908 166.916 147.38 168.388 147.38 170.194V204.164V207.087C147.38 208.291 146.951 209.326 146.1 210.177Z" stroke="#17C28C" stroke-width="0.703858" stroke-miterlimit="2.61313"/>
<path fill-rule="evenodd" clip-rule="evenodd" d="M219.614 210.177L201.503 228.288C200.439 229.351 199.145 229.888 197.641 229.888H171.973H163.921H150.657C148.852 229.888 147.38 228.416 147.38 226.61V190.169C147.38 188.665 147.916 187.37 148.979 186.307L166.77 168.516C167.834 167.452 169.128 166.916 170.632 166.916H178.913H195.454H201.235H217.617C219.422 166.916 220.894 168.388 220.894 170.194V204.164V207.087C220.894 208.291 220.465 209.326 219.614 210.177H219.614Z" stroke="#17C28C" stroke-width="0.703858" stroke-miterlimit="2.61313"/>
<path fill-rule="evenodd" clip-rule="evenodd" d="M293.128 210.177L275.017 228.288C273.953 229.351 272.659 229.888 271.155 229.888H245.486H237.435H224.171C222.366 229.888 220.894 228.416 220.894 226.61V190.169C220.894 188.665 221.43 187.37 222.493 186.307L240.284 168.516C241.348 167.452 242.642 166.916 244.146 166.916H252.426H268.967H274.749H291.13C292.935 166.916 294.407 168.388 294.407 170.194V204.164V207.087C294.407 208.291 293.979 209.326 293.127 210.177H293.128Z" stroke="#17C28C" stroke-width="0.703858" stroke-miterlimit="2.61313"/>
<path fill-rule="evenodd" clip-rule="evenodd" d="M106.813 206.89L124.924 188.779C125.988 187.715 127.282 187.179 128.786 187.179H154.455H162.506H175.77C177.575 187.179 179.048 188.651 179.048 190.456V226.898C179.048 228.402 178.511 229.696 177.448 230.76L159.657 248.551C158.593 249.614 157.299 250.15 155.795 250.15H147.515H130.974H125.192H108.811C107.005 250.15 105.533 248.678 105.533 246.873V212.903V209.979C105.533 208.776 105.962 207.741 106.813 206.89H106.813Z" stroke="#17C28C" stroke-width="0.703858" stroke-miterlimit="2.61313"/>
<path fill-rule="evenodd" clip-rule="evenodd" d="M180.327 206.89L198.438 188.779C199.502 187.715 200.796 187.179 202.3 187.179H227.969H236.02H249.284C251.089 187.179 252.561 188.651 252.561 190.456V226.898C252.561 228.402 252.025 229.696 250.962 230.76L233.171 248.551C232.107 249.614 230.813 250.15 229.309 250.15H221.029H204.488H198.706H182.325C180.52 250.15 179.047 248.678 179.047 246.873V212.903V209.979C179.047 208.776 179.476 207.741 180.327 206.89Z" stroke="#17C28C" stroke-width="0.703858" stroke-miterlimit="2.61313"/>
<path fill-rule="evenodd" clip-rule="evenodd" d="M72.5862 376.645L54.4753 394.756C53.4118 395.819 52.1174 396.356 50.6133 396.356H24.9449H16.8932H3.62949C1.82424 396.356 0.352173 394.884 0.352173 393.078V356.637C0.352173 355.133 0.888341 353.838 1.95185 352.775L19.7428 334.984C20.8063 333.92 22.1008 333.384 23.6049 333.384H31.8849H48.4256H54.2072H70.5887C72.3939 333.384 73.866 334.856 73.866 336.662V370.632V373.555C73.866 374.759 73.4372 375.794 72.5862 376.645Z" stroke="#17C28C" stroke-width="0.703858" stroke-miterlimit="2.61313"/>
<path fill-rule="evenodd" clip-rule="evenodd" d="M33.2996 373.357L51.4106 355.246C52.4741 354.183 53.7685 353.646 55.2726 353.646H80.941H88.9927H102.256C104.062 353.646 105.534 355.119 105.534 356.924V393.365C105.534 394.869 104.998 396.164 103.934 397.227L86.1431 415.018C85.0795 416.082 83.7851 416.618 82.281 416.618H74.001H57.4603H51.6786H35.2972C33.492 416.618 32.0199 415.146 32.0199 413.341V379.37V376.447C32.0199 375.243 32.4487 374.208 33.2996 373.357Z" stroke="#17C28C" stroke-width="0.703858" stroke-miterlimit="2.61313"/>
<path fill-rule="evenodd" clip-rule="evenodd" d="M146.1 376.645L127.989 394.756C126.926 395.819 125.631 396.356 124.127 396.356H98.4587H90.407H77.1433C75.338 396.356 73.866 394.884 73.866 393.078V356.637C73.866 355.133 74.4021 353.838 75.4656 352.775L93.2566 334.984C94.3201 333.92 95.6146 333.384 97.1187 333.384H105.399H121.939H127.721H144.102C145.908 333.384 147.38 334.856 147.38 336.662V370.632V373.555C147.38 374.759 146.951 375.794 146.1 376.645Z" stroke="#17C28C" stroke-width="0.703858" stroke-miterlimit="2.61313"/>
<path fill-rule="evenodd" clip-rule="evenodd" d="M219.614 376.645L201.503 394.756C200.439 395.819 199.145 396.356 197.641 396.356H171.973H163.921H150.657C148.852 396.356 147.38 394.884 147.38 393.078V356.637C147.38 355.133 147.916 353.838 148.979 352.775L166.77 334.984C167.834 333.92 169.128 333.384 170.632 333.384H178.913H195.454H201.235H217.617C219.422 333.384 220.894 334.856 220.894 336.662V370.632V373.555C220.894 374.759 220.465 375.794 219.614 376.645H219.614Z" stroke="#17C28C" stroke-width="0.703858" stroke-miterlimit="2.61313"/>
<path fill-rule="evenodd" clip-rule="evenodd" d="M293.128 376.645L275.017 394.756C273.953 395.819 272.659 396.356 271.155 396.356H245.486H237.435H224.171C222.366 396.356 220.894 394.884 220.894 393.078V356.637C220.894 355.133 221.43 353.838 222.493 352.775L240.284 334.984C241.348 333.92 242.642 333.384 244.146 333.384H252.426H268.967H274.749H291.13C292.935 333.384 294.407 334.856 294.407 336.662V370.632V373.555C294.407 374.759 293.979 375.794 293.127 376.645H293.128Z" stroke="#17C28C" stroke-width="0.703858" stroke-miterlimit="2.61313"/>
<path fill-rule="evenodd" clip-rule="evenodd" d="M106.813 373.357L124.924 355.246C125.988 354.183 127.282 353.646 128.786 353.646H154.455H162.506H175.77C177.575 353.646 179.048 355.119 179.048 356.924V393.365C179.048 394.869 178.511 396.164 177.448 397.227L159.657 415.018C158.593 416.082 157.299 416.618 155.795 416.618H147.515H130.974H125.192H108.811C107.005 416.618 105.533 415.146 105.533 413.341V379.37V376.447C105.533 375.243 105.962 374.208 106.813 373.357H106.813Z" stroke="#17C28C" stroke-width="0.703858" stroke-miterlimit="2.61313"/>
<path fill-rule="evenodd" clip-rule="evenodd" d="M180.327 373.357L198.438 355.246C199.502 354.183 200.796 353.646 202.3 353.646H227.969H236.02H249.284C251.089 353.646 252.561 355.119 252.561 356.924V393.365C252.561 394.869 252.025 396.164 250.962 397.227L233.171 415.018C232.107 416.082 230.813 416.618 229.309 416.618H221.029H204.488H198.706H182.325C180.52 416.618 179.047 415.146 179.047 413.341V379.37V376.447C179.047 375.243 179.476 374.208 180.327 373.357Z" stroke="#17C28C" stroke-width="0.703858" stroke-miterlimit="2.61313"/>
<path fill-rule="evenodd" clip-rule="evenodd" d="M180.327 290.123L198.438 272.012C199.502 270.949 200.796 270.413 202.3 270.413H227.969H236.02H249.284C251.089 270.413 252.561 271.885 252.561 273.69V310.131C252.561 311.635 252.025 312.93 250.962 313.993L233.171 331.784C232.107 332.848 230.813 333.384 229.309 333.384H221.029H204.488H198.706H182.325C180.52 333.384 179.047 331.912 179.047 330.107V296.136V293.213C179.047 292.01 179.476 290.974 180.327 290.123Z" stroke="#17C28C" stroke-width="0.703858" stroke-miterlimit="2.61313"/>
<path fill-rule="evenodd" clip-rule="evenodd" d="M106.813 290.123L124.924 272.012C125.988 270.949 127.282 270.413 128.786 270.413H154.455H162.506H175.77C177.575 270.413 179.048 271.885 179.048 273.69V310.131C179.048 311.635 178.511 312.93 177.448 313.993L159.657 331.784C158.593 332.848 157.299 333.384 155.795 333.384H147.515H130.974H125.192H108.811C107.005 333.384 105.533 331.912 105.533 330.107V296.136V293.213C105.533 292.01 105.962 290.974 106.813 290.123H106.813Z" stroke="#17C28C" stroke-width="0.703858" stroke-miterlimit="2.61313"/>
<path fill-rule="evenodd" clip-rule="evenodd" d="M33.2996 290.123L51.4106 272.012C52.4741 270.949 53.7685 270.413 55.2726 270.413H80.941H88.9927H102.256C104.062 270.413 105.534 271.885 105.534 273.69V310.131C105.534 311.635 104.998 312.93 103.934 313.993L86.1431 331.784C85.0795 332.848 83.7851 333.384 82.281 333.384H74.001H57.4603H51.6786H35.2972C33.492 333.384 32.0199 331.912 32.0199 330.107V296.136V293.213C32.0199 292.01 32.4487 290.974 33.2996 290.123Z" stroke="#17C28C" stroke-width="0.703858" stroke-miterlimit="2.61313"/>
<path fill-rule="evenodd" clip-rule="evenodd" d="M293.128 293.411L275.017 311.522C273.953 312.586 272.659 313.122 271.155 313.122H245.486H237.435H224.171C222.366 313.122 220.894 311.65 220.894 309.844V273.403C220.894 271.899 221.43 270.605 222.493 269.541L240.284 251.75C241.348 250.687 242.642 250.15 244.146 250.15H252.426H268.967H274.749H291.13C292.935 250.15 294.407 251.622 294.407 253.428V287.398V290.321C294.407 291.525 293.979 292.56 293.127 293.411H293.128Z" stroke="#17C28C" stroke-width="0.703858" stroke-miterlimit="2.61313"/>
<path fill-rule="evenodd" clip-rule="evenodd" d="M219.614 293.411L201.503 311.522C200.439 312.586 199.145 313.122 197.641 313.122H171.973H163.921H150.657C148.852 313.122 147.38 311.65 147.38 309.844V273.403C147.38 271.899 147.916 270.605 148.979 269.541L166.77 251.75C167.834 250.687 169.128 250.15 170.632 250.15H178.913H195.454H201.235H217.617C219.422 250.15 220.894 251.622 220.894 253.428V287.398V290.321C220.894 291.525 220.465 292.56 219.614 293.411H219.614Z" stroke="#17C28C" stroke-width="0.703858" stroke-miterlimit="2.61313"/>
<path fill-rule="evenodd" clip-rule="evenodd" d="M146.1 293.411L127.989 311.522C126.926 312.586 125.631 313.122 124.127 313.122H98.4587H90.407H77.1433C75.338 313.122 73.866 311.65 73.866 309.844V273.403C73.866 271.899 74.4021 270.605 75.4656 269.541L93.2566 251.75C94.3201 250.687 95.6146 250.15 97.1187 250.15H105.399H121.939H127.721H144.102C145.908 250.15 147.38 251.622 147.38 253.428V287.398V290.321C147.38 291.525 146.951 292.56 146.1 293.411Z" stroke="#17C28C" stroke-width="0.703858" stroke-miterlimit="2.61313"/>
<path fill-rule="evenodd" clip-rule="evenodd" d="M72.5862 293.411L54.4753 311.522C53.4118 312.586 52.1174 313.122 50.6133 313.122H24.9449H16.8932H3.62949C1.82424 313.122 0.352173 311.65 0.352173 309.844V273.403C0.352173 271.899 0.888341 270.605 1.95185 269.541L19.7428 251.75C20.8063 250.687 22.1008 250.15 23.6049 250.15H31.8849H48.4256H54.2072H70.5887C72.3939 250.15 73.866 251.622 73.866 253.428V287.398V290.321C73.866 291.525 73.4372 292.56 72.5862 293.411Z" stroke="#17C28C" stroke-width="0.703858" stroke-miterlimit="2.61313"/>
<path fill-rule="evenodd" clip-rule="evenodd" d="M180.327 456.59L198.438 438.48C199.502 437.416 200.796 436.88 202.3 436.88H227.969H236.02H249.284C251.089 436.88 252.561 438.352 252.561 440.157V476.599C252.561 478.103 252.025 479.397 250.962 480.461L233.171 498.252C232.107 499.315 230.813 499.851 229.309 499.851H221.029H204.488H198.706H182.325C180.52 499.851 179.047 498.379 179.047 496.574V462.603V459.68C179.047 458.477 179.476 457.441 180.327 456.59Z" stroke="#17C28C" stroke-width="0.703858" stroke-miterlimit="2.61313"/>
<path fill-rule="evenodd" clip-rule="evenodd" d="M106.813 456.59L124.924 438.48C125.988 437.416 127.282 436.88 128.786 436.88H154.455H162.506H175.77C177.575 436.88 179.048 438.352 179.048 440.157V476.599C179.048 478.103 178.511 479.397 177.448 480.461L159.657 498.252C158.593 499.315 157.299 499.851 155.795 499.851H147.515H130.974H125.192H108.811C107.005 499.851 105.533 498.379 105.533 496.574V462.603V459.68C105.533 458.477 105.962 457.441 106.813 456.59H106.813Z" stroke="#17C28C" stroke-width="0.703858" stroke-miterlimit="2.61313"/>
<path fill-rule="evenodd" clip-rule="evenodd" d="M33.2996 456.59L51.4105 438.48C52.474 437.416 53.7685 436.88 55.2725 436.88H80.9409H88.9926H102.256C104.062 436.88 105.534 438.352 105.534 440.157V476.599C105.534 478.103 104.997 479.397 103.934 480.461L86.143 498.252C85.0795 499.315 83.785 499.851 82.281 499.851H74.0009H57.4602H51.6786H35.2972C33.4919 499.851 32.0198 498.379 32.0198 496.574V462.603V459.68C32.0198 458.477 32.4486 457.441 33.2996 456.59Z" stroke="#17C28C" stroke-width="0.703858" stroke-miterlimit="2.61313"/>
<path fill-rule="evenodd" clip-rule="evenodd" d="M293.128 459.878L275.017 477.989C273.953 479.053 272.659 479.589 271.155 479.589H245.486H237.435H224.171C222.366 479.589 220.894 478.117 220.894 476.312V439.87C220.894 438.366 221.43 437.072 222.493 436.008L240.284 418.217C241.348 417.154 242.642 416.618 244.146 416.618H252.426H268.967H274.749H291.13C292.935 416.618 294.407 418.09 294.407 419.895V453.866V456.789C294.407 457.992 293.979 459.027 293.127 459.878H293.128Z" stroke="#17C28C" stroke-width="0.703858" stroke-miterlimit="2.61313"/>
<path fill-rule="evenodd" clip-rule="evenodd" d="M219.614 459.878L201.503 477.989C200.439 479.053 199.145 479.589 197.641 479.589H171.973H163.921H150.657C148.852 479.589 147.38 478.117 147.38 476.312V439.87C147.38 438.366 147.916 437.072 148.979 436.008L166.77 418.217C167.834 417.154 169.128 416.618 170.632 416.618H178.913H195.454H201.235H217.617C219.422 416.618 220.894 418.09 220.894 419.895V453.866V456.789C220.894 457.992 220.465 459.027 219.614 459.878H219.614Z" stroke="#17C28C" stroke-width="0.703858" stroke-miterlimit="2.61313"/>
<path fill-rule="evenodd" clip-rule="evenodd" d="M146.1 459.878L127.989 477.989C126.926 479.053 125.631 479.589 124.127 479.589H98.4587H90.407H77.1433C75.338 479.589 73.866 478.117 73.866 476.312V439.87C73.866 438.366 74.4021 437.072 75.4656 436.008L93.2566 418.217C94.3201 417.154 95.6146 416.618 97.1187 416.618H105.399H121.939H127.721H144.102C145.908 416.618 147.38 418.09 147.38 419.895V453.866V456.789C147.38 457.992 146.951 459.027 146.1 459.878Z" stroke="#17C28C" stroke-width="0.703858" stroke-miterlimit="2.61313"/>
<path fill-rule="evenodd" clip-rule="evenodd" d="M72.5862 459.878L54.4753 477.989C53.4118 479.053 52.1173 479.589 50.6132 479.589H24.9449H16.8931H3.62943C1.82418 479.589 0.352112 478.117 0.352112 476.312V439.87C0.352112 438.366 0.88828 437.072 1.95179 436.008L19.7428 418.217C20.8063 417.154 22.1007 416.618 23.6048 416.618H31.8849H48.4255H54.2072H70.5886C72.3939 416.618 73.8659 418.09 73.8659 419.895V453.866V456.789C73.8659 457.992 73.4371 459.027 72.5862 459.878Z" stroke="#17C28C" stroke-width="0.703858" stroke-miterlimit="2.61313"/>
</g>
<defs>
<clipPath id="clip0_204_14640">
<rect width="400" height="500.242" fill="white"/>
</clipPath>
</defs>
</svg>
