<svg width="107" height="102" viewBox="0 0 107 102" fill="none" xmlns="http://www.w3.org/2000/svg">
<g clip-path="url(#clip0_204_14277)">
<path fill-rule="evenodd" clip-rule="evenodd" d="M53.153 0.118656C61.1357 0.123529 69.0139 1.93417 76.1977 5.41501C83.3816 8.89585 89.6849 13.9567 94.6358 20.2187C99.5868 26.4806 103.057 33.7814 104.787 41.5745C106.516 49.3676 106.461 57.451 104.624 65.2195L31.3516 101.241C20.3262 96.2601 11.341 87.6508 5.89359 76.8482C0.446159 66.0457 -1.1344 53.7024 1.41534 41.8758C3.96508 30.0491 10.4911 19.4536 19.9057 11.8552C29.3202 4.25672 41.0546 0.114415 53.153 0.118656Z" fill="black"/>
<path fill-rule="evenodd" clip-rule="evenodd" d="M34.5915 54.8615L48.4607 67.4379C49.0138 67.9492 49.6871 68.3125 50.4182 68.4938C51.1493 68.6752 51.9143 68.6688 52.6422 68.4753L60.7978 66.4165L39.3954 47.4081L50.1206 24.9045L39.6029 27.5539L30.8888 46.1473C30.2065 47.5747 30.0538 49.1982 30.4578 50.7278L30.6653 51.5258L29.2289 51.8929L28.7022 49.7862L27.6968 45.7962L24.6484 33.6347C24.4877 33.0573 24.1065 32.5663 23.5869 32.2677C23.0673 31.9691 22.4511 31.8868 21.8714 32.0387L15.2958 33.6347L25.7656 75.1307L34.5596 72.9282L31.591 61.1018L34.5915 54.8615Z" fill="white"/>
<path fill-rule="evenodd" clip-rule="evenodd" d="M58.0048 55.0849C58.496 57.2557 59.4849 59.2828 60.8936 61.006C62.1388 62.5201 63.805 63.631 65.6816 64.198C67.5972 64.734 69.6232 64.734 71.5389 64.198C73.6672 63.7236 75.5996 62.6098 77.077 61.006C77.3164 60.7347 77.5399 60.4474 77.7473 60.1601C78.1432 59.6209 78.4119 58.9991 78.5335 58.3413C78.6551 57.6835 78.6264 57.0068 78.4496 56.3617V56.0744L79.87 55.7073L80.0456 56.3936L80.7159 59.0589C80.8801 59.634 81.2621 60.1223 81.7806 60.4203C82.2991 60.7183 82.9134 60.8025 83.4929 60.6549L89.5897 59.0589L81.6416 28.0007L73.0072 30.1873L77.5079 48.0944C77.8578 49.3092 77.8578 50.5982 77.5079 51.8131C77.2331 52.8414 76.681 53.7744 75.9119 54.5103C75.1335 55.2174 74.1894 55.717 73.1668 55.9627C72.4487 56.175 71.6931 56.2293 70.952 56.1218C70.2109 56.0144 69.5018 55.7477 68.8736 55.3402C67.5362 54.3898 66.616 52.961 66.304 51.3502L62.2183 35.2306C62.0505 34.6578 61.6679 34.172 61.1505 33.8746C60.633 33.5772 60.0206 33.4912 59.4412 33.6346L53.0572 35.2306L58.0048 55.0849Z" fill="white"/>
<path fill-rule="evenodd" clip-rule="evenodd" d="M31.3516 101.225V101.097C33.159 93.5781 36.5924 86.5461 41.4102 80.4965C46.228 74.447 52.313 69.5268 59.2372 66.0822C66.1613 62.6376 73.7562 60.7524 81.4873 60.5592C89.2185 60.3661 96.8981 61.8696 103.986 64.964L104.56 65.2194L31.3516 101.225Z" fill="#DFFFE0"/>
</g>
<defs>
<clipPath id="clip0_204_14277">
<rect width="105.799" height="101.123" fill="white" transform="translate(0.245575 0.118652)"/>
</clipPath>
</defs>
</svg>
