<svg width="704" height="1017" viewBox="0 0 704 1017" fill="none" xmlns="http://www.w3.org/2000/svg">
<path d="M-87 3.3233C6.62 -3.1367 0.3 89.1433 -1 107.423C-14.24 294.483 98.46 248.003 217.7 229.043C336.94 210.083 190.8 476.123 155.06 539.263C114.8 610.483 127.98 632.603 248.44 600.903C321.88 581.583 404.78 572.283 437.1 571.563C525.58 569.563 517.38 613.363 474.58 707.203C366.12 945.023 544.8 796.603 583.38 814.483C619.5 831.263 534.32 970.843 558.34 1004.48C583.66 1039.96 709.34 957.163 790.98 957.163" stroke="#00A671" stroke-width="6" stroke-linejoin="round"/>
<g clip-path="url(#clip0_204_14437)">
<path fill-rule="evenodd" clip-rule="evenodd" d="M16.2225 353.772C15.0932 353.824 13.987 353.442 13.1309 352.703C12.2747 351.965 11.7336 350.927 11.6184 349.803C11.5033 348.678 11.8229 347.552 12.5117 346.656C13.2005 345.759 14.2062 345.161 15.3225 344.982L22.6725 344.232L19.6725 337.452C19.3346 336.903 19.1188 336.287 19.0397 335.647C18.9606 335.007 19.02 334.357 19.214 333.742C19.4079 333.127 19.7319 332.561 20.1638 332.082C20.5958 331.603 21.1257 331.222 21.7176 330.966C22.3095 330.709 22.9496 330.583 23.5945 330.596C24.2394 330.609 24.874 330.76 25.4553 331.039C26.0367 331.319 26.5511 331.72 26.9639 332.216C27.3766 332.711 27.678 333.29 27.8475 333.912L30.8475 340.677L36.2775 335.772C37.1539 335.028 38.2862 334.656 39.4332 334.735C40.5802 334.813 41.6511 335.337 42.4178 336.193C43.1845 337.05 43.5863 338.172 43.5377 339.321C43.4891 340.469 42.9939 341.554 42.1575 342.342L36.6525 347.277L43.0575 350.997C43.5928 351.27 44.0669 351.649 44.4509 352.111C44.8349 352.573 45.1208 353.109 45.2911 353.685C45.4615 354.261 45.5127 354.866 45.4417 355.463C45.3707 356.059 45.1789 356.635 44.8781 357.155C44.5773 357.675 44.1737 358.129 43.6919 358.488C43.2102 358.847 42.6603 359.104 42.076 359.244C41.4916 359.383 40.8849 359.402 40.2929 359.3C39.7009 359.197 39.1359 358.975 38.6325 358.647L32.2275 354.927L30.7275 362.157C30.6073 362.725 30.3766 363.263 30.0485 363.741C29.7204 364.219 29.3013 364.628 28.8152 364.944C28.3291 365.26 27.7855 365.478 27.2154 365.584C26.6452 365.69 26.0598 365.683 25.4925 365.562C24.3468 365.32 23.3444 364.632 22.7058 363.65C22.3896 363.164 22.1723 362.62 22.0662 362.05C21.9601 361.48 21.9673 360.895 22.0875 360.327L23.5875 353.082L16.2225 353.772Z" fill="#38DAA6"/>
</g>
<defs>
<clipPath id="clip0_204_14437">
<rect width="33.915" height="34.365" fill="white" transform="translate(11.3475 331.272)"/>
</clipPath>
</defs>
</svg>
