<svg width="35" height="36" viewBox="0 0 35 36" fill="none" xmlns="http://www.w3.org/2000/svg">
<path fill-rule="evenodd" clip-rule="evenodd" d="M5.22257 23.7724C4.0933 23.824 2.9871 23.4415 2.13095 22.7033C1.2748 21.9652 0.733628 20.9273 0.618485 19.8027C0.503342 18.6782 0.822958 17.5522 1.51175 16.6558C2.20054 15.7595 3.20627 15.1607 4.32257 14.9824L11.6726 14.2324L8.67257 7.4524C8.33469 6.90296 8.11889 6.28729 8.03977 5.64714C7.96066 5.00699 8.02009 4.35731 8.21404 3.74214C8.40799 3.12697 8.73192 2.56068 9.16387 2.08166C9.59583 1.60263 10.1257 1.22207 10.7176 0.965754C11.3095 0.709441 11.9496 0.583372 12.5945 0.59609C13.2394 0.608808 13.874 0.760016 14.4554 1.03947C15.0367 1.31892 15.5512 1.72008 15.9639 2.21576C16.3767 2.71144 16.678 3.29006 16.8476 3.9124L19.8476 10.6774L25.2776 5.7724C26.154 5.02835 27.2863 4.65595 28.4333 4.73456C29.5802 4.81317 30.6511 5.33657 31.4178 6.19324C32.1845 7.0499 32.5864 8.17211 32.5378 9.32073C32.4892 10.4694 31.9939 11.5536 31.1576 12.3424L25.6526 17.2774L32.0576 20.9974C32.5928 21.2703 33.0669 21.6493 33.451 22.1114C33.835 22.5735 34.1209 23.1089 34.2912 23.6851C34.4616 24.2613 34.5128 24.8661 34.4418 25.4627C34.3708 26.0593 34.179 26.6352 33.8782 27.1553C33.5773 27.6753 33.1737 28.1287 32.692 28.4877C32.2102 28.8468 31.6604 29.1039 31.076 29.2435C30.4917 29.3832 29.885 29.4023 29.293 29.2998C28.7009 29.1973 28.136 28.9753 27.6326 28.6474L21.2276 24.9274L19.7276 32.1574C19.6074 32.7247 19.3767 33.2628 19.0486 33.7409C18.7205 34.2191 18.3014 34.6279 17.8153 34.9441C17.3292 35.2603 16.7855 35.4776 16.2154 35.5837C15.6453 35.6898 15.0599 35.6826 14.4926 35.5624C13.3468 35.3197 12.3444 34.6319 11.7059 33.6501C11.3897 33.164 11.1723 32.6204 11.0663 32.0502C10.9602 31.4801 10.9674 30.8947 11.0876 30.3274L12.5876 23.0824L5.22257 23.7724Z" fill="#38DAA6"/>
</svg>
